<?xml version="1.0" encoding="UTF-8" standalone="no"?>
<!-- Created with Inkscape (http://www.inkscape.org/) -->

<svg
   version="1.1"
   id="svg1"
   width="512"
   height="512"
   viewBox="0 0 512 512"
   sodipodi:docname="black_on_white-square.svg"
   inkscape:version="1.3.2 (091e20e, 2023-11-25, custom)"
   xmlns:inkscape="http://www.inkscape.org/namespaces/inkscape"
   xmlns:sodipodi="http://sodipodi.sourceforge.net/DTD/sodipodi-0.dtd"
   xmlns="http://www.w3.org/2000/svg"
   xmlns:svg="http://www.w3.org/2000/svg">
  <defs
     id="defs1">
    <inkscape:path-effect
       effect="simplify"
       id="path-effect1"
       is_visible="true"
       lpeversion="1.3"
       threshold="0.5"
       steps="25"
       smooth_angles="180"
       helper_size="15"
       simplify_individual_paths="false"
       simplify_just_coalesce="false" />
  </defs>
  <sodipodi:namedview
     id="namedview1"
     pagecolor="#ffffff"
     bordercolor="#000000"
     borderopacity="0.25"
     inkscape:showpageshadow="2"
     inkscape:pageopacity="0.0"
     inkscape:pagecheckerboard="0"
     inkscape:deskcolor="#d1d1d1"
     showgrid="false"
     inkscape:zoom="1.1062354"
     inkscape:cx="273.90192"
     inkscape:cy="254.91862"
     inkscape:window-width="1509"
     inkscape:window-height="1438"
     inkscape:window-x="-6"
     inkscape:window-y="-6"
     inkscape:window-maximized="1"
     inkscape:current-layer="g1" />
  <g
     inkscape:groupmode="layer"
     inkscape:label="Image"
     id="g1">
    <path
       style="fill:#000000"
       d="m 239.25387,505.05489 c -6.20668,-0.65826 -12.42704,-1.28824 -18.67252,-1.38887 -0.77834,0.30656 -1.48629,-0.77348 -0.90443,-1.44002 1.23068,-1.40979 3.16431,-1.8135 4.9381,-2.0669 6.55765,-0.93683 13.21485,-0.70656 19.79136,-0.1728 5.29766,0.42998 10.71997,0.80153 15.71169,2.68673 1.03154,0.38958 2.4334,0.70117 2.77982,1.78495 0.25942,0.81158 -0.58697,1.56744 -1.36113,1.54602 -1.82321,0.27656 -3.66643,0.35517 -5.51022,0.32398 -5.61002,-0.0949 -11.19683,-0.69233 -16.77267,-1.27309 z m 40.58905,-7.15843 c -0.82581,-5.49162 -0.074,-11.05173 0.76877,-16.48497 0.70581,-4.5501 1.14749,-9.37378 3.51898,-13.34543 1.02924,-1.72372 2.92575,-2.58772 4.62177,-3.50382 3.88953,-2.10092 7.92385,-4.0164 12.25868,-5.04665 2.87782,-0.68396 5.51952,-2.04272 8.22338,-3.1987 2.7672,-1.18307 5.65755,-2.40533 8.70089,-2.39397 3.04211,0.0114 5.82412,1.64554 7.96825,3.74851 3.60315,3.53397 6.60108,7.6195 9.45088,11.76092 2.54185,3.69389 5.04112,7.6442 5.79429,12.11416 0.57117,3.38977 0.21407,7.20623 -1.96091,9.92241 -1.32037,1.64893 -3.46634,2.19911 -5.44597,2.69001 -4.81313,1.19353 -9.52196,2.76515 -14.34969,3.9103 -5.18722,1.23042 -10.42266,2.23927 -15.6432,3.31536 -6.41689,1.32268 -12.93668,2.33474 -19.51041,2.27389 -0.92855,-0.009 -1.99197,0.39653 -2.79393,-0.0692 -0.80544,-0.46772 -0.75416,-1.50216 -0.89102,-2.30075 -0.19525,-1.13931 -0.53153,-2.2497 -0.71076,-3.39209 z m -83.08905,0.6956 c -8.1746,-1.42755 -15.82936,-4.8061 -23.78519,-7.05204 -1.98522,-0.56042 -4.1959,-0.72893 -5.85271,-2.08311 -0.7654,-0.6256 -1.776,-0.89931 -2.7531,-0.80337 -0.69953,-0.044 -1.47876,-0.53875 -1.46642,-1.33055 0.0196,-1.25474 0.86305,-2.26406 1.53588,-3.24355 2.2888,-3.3319 5.13184,-6.21616 7.74917,-9.28311 2.61713,-3.06672 4.92803,-6.54002 8.26268,-8.84144 1.26521,-0.87319 2.98079,-1.16502 4.4262,-0.48475 2.07448,0.97634 3.54468,2.80485 4.97295,4.52499 2.95294,3.55636 4.90965,8.07716 8.61701,10.86142 2.0655,1.55121 3.11493,4.03475 3.83124,6.43238 1.02601,3.43427 1.85655,7.08478 1.21316,10.65866 -0.13371,0.74269 -0.65406,1.56986 -1.49797,1.54489 -1.08075,0.0381 -2.09411,-0.36319 -3.15328,-0.53757 -0.7008,-0.11537 -1.40263,-0.22571 -2.09962,-0.36285 z m 53,-13.53839 c -8.84754,-1.43826 -18.03148,-0.95414 -26.64729,-3.5329 -3.18641,-0.95371 -5.76356,-3.19241 -8.07411,-5.5335 -2.74116,-2.77739 -5.22139,-5.79449 -7.57546,-8.91562 -2.63947,-3.49954 -5.7056,-6.66883 -8.09377,-10.3616 -1.90745,-2.94943 -3.48066,-6.26179 -3.69351,-9.81994 -0.15842,-2.64814 0.52309,-5.28933 1.71886,-7.6567 1.86046,-3.68332 4.52267,-6.92821 7.57035,-9.66512 1.35739,-1.21898 3.16785,-1.80511 4.99924,-1.88048 2.64829,-0.10898 5.31844,0.015 7.93887,-0.5237 1.82736,-0.37564 3.59061,-1.01023 5.4542,-1.24049 3.66517,-0.45287 7.38506,-0.58238 11.0556,-0.22292 3.0371,0.29742 6.07746,1.31127 8.42717,3.33549 2.94627,2.53815 5.05759,5.83671 7.56413,8.77558 4.71051,5.52298 9.8629,10.74731 13.62492,17.00346 1.7927,2.98121 3.25267,6.35773 3.13817,9.88918 -0.13108,4.04236 -2.1197,7.73701 -2.34898,11.77223 -0.0939,1.65278 -0.21364,3.37752 -1.09393,4.8387 -1.4818,2.45963 -4.29202,3.80211 -7.06393,4.18875 -2.3014,0.32101 -4.6475,0.0679 -6.90053,-0.45042 z m -107,-6.40447 c -5.69998,-2.90569 -11.15789,-6.25553 -16.52421,-9.74032 -3.66296,-2.37866 -6.79232,-5.57158 -10.63098,-7.64862 -1.39982,-0.75742 -2.93529,-1.25816 -4.17952,-2.32292 -2.01681,-1.7259 -4.03354,-3.45016 -6.1312,-5.08167 -4.25914,-3.31263 -8.881257,-6.36738 -12.142007,-10.72155 -1.297111,-1.73206 -2.015844,-3.99486 -1.512686,-6.17134 0.3359,-1.45299 1.31778,-2.85904 2.824376,-3.28661 1.96228,-0.55689 4.033228,-0.51195 6.039807,-0.34322 6.2663,0.52693 12.07554,3.12801 18.15795,4.51637 2.43717,0.5563 4.94174,0.74023 7.39298,1.21567 6.12311,1.18763 11.87152,3.81328 18.08285,4.67839 4.04444,0.56331 8.05526,1.62525 11.71152,3.41146 1.38938,0.67876 2.8154,1.37487 4.41387,1.44256 1.88243,0.0797 3.92149,-0.056 5.58506,0.98071 1.65995,1.03446 2.32668,3.19742 1.84786,5.09174 -0.62444,2.4704 -2.46871,4.33828 -4.11695,6.18215 -5.53146,6.188 -13.46684,11.02671 -16.28395,18.8337 -0.26945,0.74672 -1.23925,0.80523 -1.92994,0.39606 -0.8528,-0.50521 -1.73646,-0.9553 -2.60483,-1.43256 z m 209.74447,-13.14795 c -4.89454,-4.93462 -9.49677,-10.31041 -12.56989,-16.59249 -1.7554,-3.5884 -3.07002,-7.66666 -2.3677,-11.64675 0.84901,-4.81139 2.13327,-9.62478 4.49346,-13.91076 1.30741,-2.37417 3.20177,-4.65701 5.85369,-5.52374 2.24728,-0.73447 4.64115,-0.27642 6.91078,0.196 4.88882,1.0176 9.89489,1.3583 14.77969,2.37857 1.97478,0.41247 3.85215,1.20923 5.8262,1.60751 3.49023,0.70418 7.05494,0.90495 10.55139,1.59032 4.97897,0.97597 9.80911,2.56517 14.79504,3.52862 2.60065,0.50253 5.23578,0.82832 7.79391,1.54521 4.84733,1.35844 9.62577,3.38419 13.48502,6.63494 1.07475,0.9053 1.7221,2.25902 2.86082,3.08149 0.58239,0.42065 1.12292,1.4425 0.4763,2.00685 -0.83405,0.72793 -1.65477,1.46756 -2.45671,2.23269 -5.64798,5.38875 -11.85626,10.14512 -18.10427,14.80704 -4.20633,3.13853 -8.55367,6.08434 -13.02579,8.84583 -0.85405,0.52737 -1.84479,0.78511 -2.86745,0.73554 -0.71582,-0.0347 -1.30629,-0.47432 -1.96469,-0.68795 -1.8148,-0.58882 -3.73022,-0.0744 -5.51071,0.37483 -1.95417,0.49304 -3.92794,0.89448 -5.91296,1.25226 -5.30847,0.9568 -10.65253,1.69585 -15.98749,2.48562 -1.7269,-0.0372 -3.14489,-1.18864 -4.35703,-2.30509 -0.92581,-0.85273 -1.7873,-1.77186 -2.70161,-2.63654 z m -77.11291,-22.10479 c -4.00962,-4.66342 -7.9229,-9.4055 -11.55601,-14.38786 -2.4788,-3.39935 -5.54434,-6.39198 -7.63881,-10.04493 -1.12518,-1.9624 -1.13377,-4.38074 -0.42418,-6.52822 1.0803,-3.26935 2.93905,-6.19424 4.71704,-9.11289 4.05365,-6.65424 8.01512,-13.37232 12.50515,-19.74496 1.61715,-2.29518 3.91979,-4.095 6.46917,-5.18004 1.68065,-0.71531 3.54339,-0.5972 5.3299,-0.54907 10.20031,0.27478 20.42732,0.82119 30.49873,2.44961 1.4377,0.23246 2.98567,0.32828 4.23682,1.10588 2.09056,1.29928 3.51175,3.39685 4.68362,5.49771 1.40177,2.51303 1.87173,5.39202 2.70602,8.1209 0.43391,1.41926 1.42068,2.59803 1.91423,3.98389 0.98768,2.7733 0.71961,5.77656 0.3864,8.6348 -0.82021,7.03564 -2.88864,13.94738 -6.18534,20.19724 -1.78534,3.38462 -4.42396,6.24826 -7.41008,8.62953 -2.38869,1.90486 -4.89966,3.85943 -7.85046,4.69991 -2.31051,0.65811 -4.69166,0.99883 -6.978,1.79052 -4.96686,1.71988 -9.7885,4.0473 -15.05776,4.73488 -3.02229,0.39438 -6.21501,-0.44181 -8.57328,-2.44116 -0.65383,-0.55432 -1.24662,-1.17963 -1.77316,-1.85574 z M 165.25387,433.09707 c -4.082,-1.48961 -8.42708,-2.02989 -12.61403,-3.14449 -5.61171,-1.49388 -11.12328,-3.27204 -16.826,-4.53343 -3.07245,-0.6796 -5.83844,-2.40197 -8.91509,-3.02825 -0.6294,-0.12812 -1.75984,-0.63702 -1.30028,-1.39378 0.45709,-0.75267 1.35723,-1.02445 2.09695,-1.41419 4.0414,-2.12933 8.18799,-4.22276 12.71844,-5.11098 1.67103,-0.32762 3.28234,-0.88785 4.85444,-1.54792 3.51184,-1.47451 7.08597,-2.80929 10.83541,-3.63766 6.28135,-1.38774 12.12797,-4.51397 18.55484,-5.20194 2.09977,-0.22477 4.23767,0.62257 5.70454,2.1887 2.55839,2.73151 4.35051,6.16908 5.18865,9.80397 1.09302,4.7402 0.48691,9.98867 -2.21985,14.09785 -1.45952,2.21572 -3.45328,4.35046 -6.05541,5.03141 -2.52437,0.66059 -5.13532,-0.0103 -7.56944,-0.70973 -1.49573,-0.42979 -2.96842,-0.9343 -4.45317,-1.39956 z m 272.17424,-9.49221 c -2.69166,-2.26104 -4.31896,-5.48339 -5.58383,-8.70161 -2.23505,-5.68662 -2.81067,-11.82145 -3.70988,-17.82192 -1.23422,-8.23603 -3.23856,-16.33045 -4.22981,-24.61761 -0.36852,-3.08093 -0.33314,-6.28595 -1.43447,-9.20374 -0.81308,-2.1541 -1.46066,-4.36732 -1.85384,-6.648 -0.73905,-4.2868 -1.54048,-8.7043 -0.83966,-13.00927 0.30555,-1.87689 1.61656,-3.3445 2.7805,-4.75932 3.11475,-3.78612 7.24444,-6.85697 12.01314,-8.18514 5.06128,-1.40967 10.44311,-1.07813 15.52785,0.0236 5.44851,1.18048 10.64117,3.25037 16.03341,4.64974 1.24321,0.32263 2.52384,0.48867 3.76097,0.82749 5.04013,1.38036 9.84922,3.50663 14.98819,4.57347 1.98247,0.41156 4.19719,-0.004 6.00219,0.91336 0.81295,0.41314 0.20501,1.386 -0.0519,1.98142 -0.84259,1.9527 -1.51797,3.96972 -2.30313,5.94647 -5.88814,14.82414 -13.5313,28.90345 -22.13085,42.31476 -6.96692,10.86514 -14.19466,21.7195 -23.24563,30.92746 -0.8765,0.89171 -1.8319,2.00423 -3.15906,2.05781 -0.94387,0.0381 -1.76109,-0.53639 -2.41339,-1.15776 0,0 -0.0749,-0.0563 -0.0749,-0.0563 z M 70.331726,421.72772 c -1.054041,-1.06873 -2.20147,-2.39797 -2.096211,-3.94968 0.07368,-1.08617 1.608836,-1.42588 2.348322,-0.62493 1.764765,1.91146 3.940501,3.94608 4.190523,6.54084 0.08025,0.83283 -1.01074,1.05053 -1.660378,0.5412 -0.983228,-0.77086 -1.918543,-1.60421 -2.782256,-2.50743 z M 202.49294,409.37101 c -4.17942,-6.23544 -6.86714,-13.27996 -9.9714,-20.07097 -1.50491,-3.2922 -3.53102,-6.3919 -4.48098,-9.89554 -0.66964,-2.4698 -1.61152,-4.85254 -2.70016,-7.17554 -2.22778,-4.75375 -4.30491,-9.69458 -4.94362,-14.93238 -0.17027,-1.39631 -0.40372,-2.84966 -0.0736,-4.2227 0.62978,-2.61919 2.73672,-4.60717 5.03757,-5.85036 3.71586,-2.00774 8.13891,-2.35753 12.2445,-1.63843 4.0787,0.71439 7.91137,2.36331 12.02174,3.00891 0.92489,0.14527 1.91107,0.0726 2.78062,0.41944 1.43666,0.573 2.76892,1.34306 4.2296,1.8971 3.55069,1.3468 7.27004,2.14774 10.96443,3.03855 3.85903,0.93051 7.16382,3.42771 11.00064,4.3503 2.07209,0.49824 4.20797,0.63198 6.25102,1.33506 5.25078,1.80697 10.61002,3.51914 15.40032,6.34637 1.06464,0.62836 1.84447,1.76278 1.86717,3.04022 0.0302,1.70044 -0.80005,3.24372 -1.53804,4.71776 -1.68198,3.35957 -3.74895,6.50431 -5.80273,9.64229 -3.19932,4.88827 -6.18153,9.91788 -9.44488,14.76371 -2.27066,3.37175 -5.04551,6.5536 -8.68527,8.4886 -4.45371,2.36772 -9.47788,3.25513 -14.38282,4.16396 -4.64603,0.86086 -9.32116,1.76223 -14.06201,1.80889 -2.07738,-0.10789 -4.08682,-1.11781 -5.38731,-2.79116 -0.11255,-0.14483 -0.22077,-0.29302 -0.3248,-0.44408 z m 194.76093,1.59107 c -10.28917,-3.28385 -21.09684,-4.4024 -31.56038,-6.95756 -3.16247,-0.77226 -6.20781,-2.08659 -9.4931,-2.32798 -1.60896,-0.11822 -3.22314,-0.43233 -4.66492,-1.22179 -2.9348,-1.60697 -5.14897,-4.22394 -7.01538,-6.94006 -3.93269,-5.72309 -6.25849,-12.73036 -5.71962,-19.68816 0.19416,-2.50691 1.26551,-4.85331 2.68304,-6.92171 1.94765,-2.84191 4.04389,-5.57659 5.97964,-8.42865 1.92037,-2.8294 3.57657,-5.84306 5.65721,-8.55739 1.73532,-2.26383 3.21917,-4.86514 5.5524,-6.50156 0.73467,-0.51526 1.64324,-0.24097 2.46502,-0.22224 11.75244,0.26786 23.59502,-0.53047 35.25433,1.07378 1.91221,0.2631 3.75073,1.16464 5.02353,2.67684 2.09667,2.49104 3.17412,5.66597 3.76754,8.8174 0.69007,3.66476 0.28926,7.43584 0.80179,11.11313 0.26622,1.91011 1.16989,3.63752 1.63174,5.50007 0.8628,3.47939 1.4704,7.01744 1.98342,10.5626 1.16008,8.0166 2.09748,16.06687 3.70031,24.02018 0.28255,1.40198 0.69275,3.05655 -0.16157,4.30454 -0.68468,1.00017 -1.98814,1.17173 -3.10838,1.23498 -2.14045,0.12086 -4.29283,-4.4e-4 -6.41644,-0.271 -2.14615,-0.27344 -4.26982,-0.70996 -6.36018,-1.26542 z M 91.153578,409.94429 c -1.981546,-1.70405 -2.901341,-4.25227 -3.606447,-6.68568 -1.548244,-5.34318 -3.138486,-10.89283 -2.593629,-16.46555 0.308697,-3.15731 2.008265,-6.05528 4.38887,-8.15883 3.354908,-2.96447 7.38509,-4.99349 11.348378,-6.99727 6.26377,-3.16686 12.57307,-6.24702 18.95943,-9.1575 3.0289,-1.38037 6.0248,-3.00521 9.29689,-3.63816 1.42832,-0.27629 3.06714,-0.10364 4.25109,-1.10684 0.98116,-0.83138 2.23927,-1.19971 3.49298,-1.44881 4.65268,-0.92441 9.42804,-1.09357 14.15136,-0.86738 3.01261,0.14428 6.13178,0.19495 8.95088,1.29427 1.46919,0.57291 2.4665,1.86833 3.3216,3.15505 2.24427,3.37711 3.73862,7.20535 4.60581,11.18079 0.91136,4.17791 3.51594,7.80343 4.19432,12.04498 0.26797,1.67544 -0.77436,3.2787 -2.13182,4.25116 -2.26758,1.62445 -4.74746,3.03384 -7.44218,3.7741 -2.18344,0.59981 -4.45518,0.81256 -6.60022,1.58439 -3.76188,1.3536 -7.32202,3.52087 -11.35493,3.90487 -3.94124,0.37526 -7.62629,1.98525 -11.09633,3.77611 -1.68262,0.86838 -3.58107,1.1203 -5.42525,1.49664 -3.36517,0.68672 -6.63156,1.76423 -9.90331,2.79032 -5.56309,1.74472 -11.0411,3.85746 -16.77473,4.96787 -3.140613,0.60823 -6.462549,1.33269 -9.56466,0.47863 -0.160564,-0.0442 -0.318165,-0.10038 -0.468102,-0.17316 z M 45.57192,389.14646 c -0.419098,-0.87922 -0.697087,-2.24724 -1.678202,-2.38712 -0.810938,-0.11561 -1.10884,-0.98815 -1.390306,-1.69205 -1.454732,-3.63804 -3.709228,-6.8596 -5.580225,-10.2849 -5.852402,-10.7142 -11.156187,-21.75925 -15.24853,-33.27574 -0.6238,-1.75547 -0.681653,-3.80138 -1.800758,-5.2908 -0.470195,-0.62579 0.08858,-1.35622 0.682146,-1.81095 1.725186,-1.32168 3.308193,-3.14998 5.520513,-3.50418 1.768097,-0.28309 3.435667,0.67487 4.764519,1.76361 3.890779,3.18775 7.168837,7.01893 10.611876,10.66327 5.730605,6.06565 11.121793,12.43912 16.396754,18.90769 2.804455,3.43905 5.911053,6.68445 8.131675,10.55098 1.608102,2.80003 2.631891,6.02955 2.370141,9.29379 -0.215336,2.68544 -1.028265,5.56984 -3.09913,7.34569 -1.830765,1.56996 -4.326582,1.92926 -6.654243,2.07603 -3.462552,0.21833 -6.988487,0.52597 -10.400728,-0.10058 -1.181739,-0.21699 -2.33829,-1.03845 -2.625502,-2.25474 z m 265.18195,-25.55104 c -7.40544,-1.21417 -15.02452,-0.0923 -22.38361,-1.52361 -2.99459,-0.58244 -5.72059,-2.15819 -7.95819,-4.24594 -0.89845,-0.83827 -2.67178,-1.32485 -2.6582,-2.55359 0.12875,-11.65293 -1.08719,-23.39023 0.36871,-34.96086 0.46109,-3.6645 2.16907,-7.00108 3.87143,-10.22958 2.70431,-5.12866 5.31387,-10.50398 9.43592,-14.59748 1.01444,-1.00741 1.93602,-2.11522 2.4785,-3.50339 0.7303,-1.86875 2.34572,-3.13763 3.58899,-4.64755 3.81499,-4.63323 6.55961,-10.1546 10.9933,-14.24957 1.17458,-1.08485 2.9862,-1.63219 4.50557,-0.9324 2.08499,0.96029 3.48652,2.86453 4.81709,4.64889 3.30405,4.43092 6.08704,9.21615 8.85144,13.99114 3.91709,6.76602 7.21999,13.85865 10.65513,20.87462 1.72168,3.51638 3.59332,6.96635 5.11226,10.57582 1.23893,2.9441 2.4334,6.06674 2.27872,9.29204 -0.147,3.06522 -1.73869,5.79559 -3.37218,8.31695 -3.34144,5.15767 -6.81878,10.23613 -10.60137,15.07842 -1.56768,2.00686 -3.10479,4.09529 -5.10067,5.6928 -2.46011,1.96909 -5.36853,3.71415 -8.53562,3.87471 -2.1587,0.10945 -4.22262,-0.67863 -6.34722,-0.90142 z M 80.248692,361.626 c -2.875352,-1.62147 -5.056377,-4.14502 -7.292944,-6.50804 -8.990193,-9.49848 -17.571564,-19.36808 -26.137393,-29.24703 -2.491902,-2.87391 -4.978307,-5.94829 -6.062945,-9.6539 -1.170283,-3.99822 -1.010533,-8.20733 -0.994336,-12.32476 0.01109,-2.81867 0.782955,-5.75017 -0.0069,-8.45612 -0.218315,-0.74795 0.45609,-1.3133 0.931679,-1.78497 3.33514,-3.30761 6.476854,-7.04066 10.728132,-9.15264 5.585482,-2.7748 10.391817,-6.80203 15.664252,-10.09142 4.649719,-2.90089 9.283143,-5.83245 14.023613,-8.582 2.878134,-1.66937 5.890399,-3.47452 9.23921,-3.74043 1.161381,-0.0922 2.053709,0.83423 2.675849,1.71063 1.102683,1.55335 2.039261,3.2228 2.8646,4.93669 2.948078,6.12192 4.544152,12.76699 7.210672,19.00686 1.9597,4.58585 3.91542,9.17326 5.81298,13.78546 3.17369,7.71396 5.66718,15.70578 9.07544,23.31837 1.24771,2.78685 2.90089,5.4307 3.51162,8.47571 0.52492,2.61721 0.12155,5.35008 0.66365,7.95499 0.14698,0.70627 0.33005,1.72098 -0.37991,2.12162 -1.19209,0.6727 -2.45134,1.2061 -3.6799,1.81091 -11.00578,5.41807 -21.564468,11.90345 -33.111918,16.06661 -1.497395,0.53985 -3.190306,0.96414 -4.73549,0.35346 z M 252.25387,345.71269 c -5.28698,-1.39282 -10.09226,-4.72452 -15.59842,-5.00022 -2.0701,-0.10366 -4.0451,-0.77642 -6.00227,-1.47757 -4.13966,-1.48304 -8.43259,-2.45126 -12.60206,-3.85815 -4.17506,-1.40879 -8.66781,-2.18291 -12.44738,-4.44991 -1.55632,-0.93349 -2.05179,-2.92087 -1.85268,-4.64891 0.46171,-4.00708 2.30906,-7.66283 4.13986,-11.1931 1.4403,-2.77727 2.89323,-5.71293 5.35047,-7.70714 1.88565,-1.53033 4.46472,-1.80123 6.82659,-1.42729 3.34964,0.53032 6.54235,1.70044 9.77234,2.68997 5.71892,1.75203 11.34518,4.00009 17.27378,4.87202 2.3776,0.34969 4.64923,1.17645 6.8462,2.15169 2.52839,1.12237 5.47872,2.02299 7.09533,4.30891 0.98595,1.39415 0.96601,3.17624 1.00154,4.8079 0.13648,6.26886 0.46635,12.58674 -0.34777,18.80318 -0.068,0.5193 0.0495,1.15378 -0.29098,1.56254 -0.62828,0.75422 -1.69508,0.73838 -2.58491,0.84075 -2.18876,0.25178 -4.42374,0.20136 -6.57964,-0.27467 z m -110.33669,-8.81623 c -2.86983,-2.89765 -4.81351,-6.56301 -6.30878,-10.30169 -0.94356,-2.35922 -1.02696,-4.9715 -2.19133,-7.27035 -1.32649,-2.61893 -3.00259,-5.08965 -3.72219,-7.99693 -1.26375,-5.1057 -4.4804,-9.43353 -5.91851,-14.48695 -0.55017,-1.93325 -1.2754,-3.80912 -2.08252,-5.65004 -1.68502,-3.8433 -3.45713,-7.64783 -5.02931,-11.5413 -2.07289,-5.13349 -4.23408,-10.30297 -5.24475,-15.75532 -0.16669,-0.89924 -0.3014,-2.08001 0.49431,-2.69369 0.93448,-0.72069 2.19528,-0.44044 3.24635,-0.19684 2.84459,0.65929 5.65698,1.44461 8.49684,2.12814 2.38918,0.57506 4.82199,0.98658 7.14653,1.81366 3.01828,1.07392 5.83329,2.79888 7.98237,5.20381 2.89433,3.23891 4.49563,7.39539 5.51451,11.56393 1.66784,6.82365 1.66779,13.88894 2.43172,20.83699 0.38908,3.53883 1.1324,7.02354 1.87325,10.50585 1.37783,6.47644 2.87741,13.07165 2.41966,19.7108 -0.11284,1.63657 -0.24145,3.5747 -1.55955,4.64689 -1.21939,0.9919 -2.87545,1.30306 -4.37717,1.12952 -1.2132,-0.14019 -2.31978,-0.79234 -3.17143,-1.64648 z m 26.88504,-2.20165 c -1.94394,-1.91514 -2.47126,-4.71419 -2.9739,-7.32129 -1.23957,-6.42934 -1.84131,-12.95502 -2.16383,-19.51292 -0.38423,-7.81274 -2.7265,-15.38482 -2.91758,-23.22493 -0.0308,-1.26244 0.618,-2.67252 0.0256,-3.78777 -0.38211,-0.71934 0.46238,-1.27038 1.25565,-1.25537 3.3911,0.0642 6.83801,0.0401 10.13176,1.01161 4.12629,1.21707 7.94349,3.33421 12.22556,4.11162 3.44542,0.62552 6.59136,2.27422 9.5953,4.00293 1.29602,0.74584 2.76826,1.43552 3.5733,2.72003 0.76263,1.21685 0.43366,2.71729 0.22286,4.04268 -0.78864,4.95847 -2.94378,9.53962 -5.00235,14.07701 -0.59818,1.31847 -1.27853,2.60214 -1.70329,3.99483 -0.47541,1.55874 -1.0963,3.08484 -2.1282,4.39342 -1.31133,1.66292 -2.43302,3.44869 -3.36485,5.39857 -0.96617,2.02176 -2.7002,3.48914 -4.22597,5.07024 -2.64959,2.74569 -5.34725,5.59741 -8.73786,7.37713 -1.20195,0.6309 -2.61431,0.0548 -3.58175,-0.88128 -0.0757,-0.0733 -0.15213,-0.14594 -0.23042,-0.21651 z m 196.78214,-9.07514 c -6.18733,-3.24933 -9.71398,-10.65377 -8.64203,-17.57063 0.24516,-1.58194 1.52439,-2.71665 2.76323,-3.59878 4.9779,-3.5446 10.69168,-5.81768 16.30324,-8.13659 7.36364,-3.04293 14.3516,-6.88865 21.45562,-10.47474 6.98506,-3.52604 13.98885,-7.10134 21.39605,-9.6541 0.94872,-0.32696 2.14515,-0.42384 2.92091,0.35808 0.96751,0.9752 1.25644,2.37589 1.56626,3.65826 0.83482,3.45535 1.47782,6.95455 2.06958,10.45829 0.82305,4.87317 1.57651,9.80704 1.38448,14.75858 -0.14282,3.68278 -0.97828,7.46818 -3.16837,10.50354 -1.61827,2.24283 -3.63264,4.19223 -5.84917,5.8261 -0.9718,0.71635 -2.14188,1.0861 -3.1692,1.7007 -1.55881,0.93257 -2.94652,2.21272 -4.75932,2.67476 -1.83455,0.46759 -3.71493,0.73059 -5.59048,0.96413 -5.7203,0.71227 -11.49435,0.80137 -17.25147,0.84478 -5.98948,-0.0252 -12.03707,-0.0816 -17.91786,-1.26854 -1.19826,-0.24185 -2.38403,-0.56695 -3.51147,-1.04384 z m 122.66951,-0.20336 c -5.68165,-2.44572 -11.83748,-3.3692 -17.66977,-5.38966 -3.36287,-1.16499 -6.83629,-1.94988 -10.31772,-2.71688 -5.51431,-1.21488 -11.39456,-2.61429 -15.61082,-6.43258 -1.23515,-1.11857 -1.52768,-2.84624 -1.81097,-4.4073 -1.59127,-8.76866 -2.02922,-17.70619 -1.95366,-26.59733 0.0268,-3.15274 -0.29584,-6.46606 0.84437,-9.41662 0.36513,-0.94488 1.47455,-1.18025 2.3937,-1.27013 7.54296,-0.73759 15.12876,-0.46119 22.69193,-0.38488 8.32424,0.084 16.68462,-0.12361 24.96241,0.81288 3.14229,0.35549 6.4167,0.79457 9.15364,2.44398 2.42292,1.46016 3.78271,4.20013 4.13636,6.98542 0.4805,3.78424 -0.10086,7.59203 -0.70389,11.3224 -1.18278,7.31674 -2.7781,14.55726 -4.35168,21.79685 -0.83467,3.84009 -1.43376,7.77832 -2.90939,11.42752 -0.49186,1.21637 -1.07172,2.63896 -2.34838,3.16586 -1.46814,0.60594 -3.05424,0.0222 -4.44705,-0.52339 -0.68746,-0.26929 -1.36456,-0.565 -2.05908,-0.81614 z M 13.576818,314.89646 C 11.471855,308.86004 10.924315,302.46165 9.7749982,296.21 8.6893731,290.30481 6.9820759,284.42834 6.9957556,278.40669 c 0.0016,-0.70308 0.050181,-1.8572 0.9201106,-1.96307 0.9413781,-0.11456 1.642345,0.64345 2.2877778,1.20815 3.203856,2.80312 6.284142,5.79492 8.830528,9.20452 2.810894,3.76377 4.423687,8.42193 4.40023,13.15645 -0.02478,5.00239 -1.077855,10.09072 -3.528808,14.44003 -0.708479,1.25722 -1.589971,2.71516 -3.036562,3.06454 -1.249881,0.30188 -2.347982,-0.69471 -2.903413,-1.779 -0.14098,-0.27522 -0.265093,-0.55859 -0.388801,-0.84185 z M 252.29012,299.0581 c -3.41612,-1.4593 -7.12133,-1.9771 -10.73841,-2.81558 -3.67439,-0.85177 -7.22407,-2.09764 -10.98572,-2.72384 -3.10962,-0.51766 -6.37525,-1.53834 -8.52381,-3.89066 -2.09669,-2.29553 -2.66678,-5.60375 -2.26901,-8.61616 0.56428,-4.27348 2.59452,-8.13229 4.10348,-12.11526 2.10262,-5.54994 4.26743,-11.08274 6.93488,-16.4012 1.75385,-3.4969 3.23277,-7.28579 5.96382,-10.10669 1.65316,-1.70755 4.1495,-2.14741 6.44822,-2.13967 3.97746,0.0134 7.90225,0.74858 11.80042,1.45385 5.96955,1.08003 11.95518,2.06501 17.97647,2.84279 4.53615,0.58594 9.04565,1.7012 13.14974,3.78974 3.44036,1.75077 6.84883,3.95014 9.01131,7.18495 0.93746,1.40234 1.67423,3.19823 1.12587,4.86755 -0.63101,1.92094 -1.92444,3.5013 -3.02362,5.16481 -5.73568,8.68043 -11.71292,17.20492 -18.00427,25.48985 -2.07232,2.72898 -4.03307,5.59759 -6.5712,7.90793 -1.90971,1.7383 -4.46662,2.78799 -7.09847,2.67749 -3.25391,-0.13662 -6.29503,-1.43968 -9.2997,-2.5699 z m 93.32121,-10.16164 c -4.11439,-5.51422 -7.8631,-11.29138 -11.36426,-17.20551 -0.78641,-1.3284 -0.46128,-3.08448 0.62782,-4.22769 1.74324,-1.82986 4.03096,-2.97304 6.21613,-4.16815 6.48472,-3.54661 13.20848,-6.62379 19.90064,-9.75035 10.53988,-4.92421 20.94055,-10.13317 31.30499,-15.42844 2.94144,-1.50281 5.95916,-3.13907 9.27967,-3.47359 2.46318,-0.24815 4.88171,0.85557 6.66216,2.56821 2.39406,2.30288 4.17317,5.14338 5.81875,7.99763 1.76938,3.06895 3.35197,6.45033 3.35458,10.03903 0.001,1.43362 -0.90228,2.71032 -2.1342,3.48187 -7.6906,4.81657 -15.87253,8.76652 -23.96871,12.83747 -11.42454,5.74452 -22.72678,11.79057 -34.52877,16.71565 -2.5165,1.05017 -5.07639,2.13288 -7.79888,2.48875 -1.34053,-0.003 -2.68264,-0.71094 -3.36992,-1.87488 z M 30.253874,274.21494 c -3.946944,-2.37823 -7.140945,-5.74491 -10.344309,-8.99828 -4.513042,-4.5835 -8.510302,-9.71531 -11.5952434,-15.35092 -1.0505466,-1.91916 -1.5282931,-4.10547 -1.5403552,-6.30465 -0.01938,-3.53345 0.2649024,-7.057 0.4900345,-10.58049 0.5613174,-8.78505 1.9267352,-17.49228 3.4501531,-26.16 0.5638,-3.20783 0.76645,-6.52386 1.873109,-9.59215 0.355027,-0.98433 1.49925,-1.45046 2.519647,-1.20431 1.913642,0.46162 3.651466,1.42239 5.416575,2.26185 13.625172,6.47996 26.856496,13.88011 40.939281,19.30946 3.402228,1.31167 6.836859,2.63076 9.893482,4.67238 4.370272,2.91905 8.414234,6.58476 10.908305,11.2648 1.282614,2.40679 2.227144,5.13633 1.959972,7.8919 -0.193858,1.99943 -1.453345,3.69186 -2.86905,5.02485 -1.528942,1.43962 -3.233446,2.68006 -4.961348,3.86633 -5.846396,4.01375 -12.133905,7.32178 -18.069805,11.19721 -1.988507,1.29826 -3.854274,2.7767 -5.839722,4.07759 -5.036659,3.30009 -10.271622,6.32247 -15.750332,8.81727 -0.833335,0.37947 -1.618535,0.93862 -2.521806,1.08885 -1.463046,0.24333 -2.648517,-0.86621 -3.958588,-1.28169 z m 163.999996,-2.55485 c -9.6996,-2.76164 -20.01804,-4.86073 -28.29044,-10.62995 -0.67626,-0.47162 -1.79656,-0.62793 -1.98676,-1.5202 -0.20163,-0.94589 0.54036,-1.70892 1.09782,-2.37519 3.18313,-3.80442 7.28111,-6.68325 11.39117,-9.38217 4.18438,-2.74772 8.59759,-5.40611 13.54325,-6.45299 4.86562,-1.02993 9.82952,-1.48384 14.78114,-1.82894 3.60825,-0.25147 7.28139,-0.60772 10.84515,0.0484 1.50813,0.27765 2.2726,1.97727 1.9983,3.46084 -0.32456,1.75542 -1.00876,3.41604 -1.69224,5.054 -1.858,4.45271 -3.85983,8.84367 -5.88551,13.22177 -1.23678,2.67306 -2.32835,5.44763 -3.97547,7.89183 -1.29771,1.92572 -3.46422,3.2685 -5.84006,3.39584 -2.03357,0.10899 -4.02537,-0.42142 -5.98635,-0.8832 z m 120.47251,-19.73783 c -4.1385,-2.83853 -7.87707,-6.55344 -9.84242,-11.23297 -2.05096,-4.88338 -1.42501,-10.50298 0.62965,-15.3317 0.79597,-1.87064 0.87066,-3.97627 1.65053,-5.84072 1.18802,-2.8402 3.22278,-5.13171 4.68982,-7.86384 0.96918,-1.80492 2.63124,-3.0521 4.10241,-4.41652 7.66017,-7.10433 16.02629,-13.37887 24.15843,-19.91991 5.00658,-4.02702 9.81258,-8.30462 14.90911,-12.21658 2.78807,-2.14005 5.65636,-4.44377 9.08932,-5.33333 2.68173,-0.69489 5.50135,0.27396 7.71723,1.88314 3.0314,2.2014 5.57074,4.97617 8.15869,7.66 4.15652,4.31052 8.48628,8.50953 12.02199,13.35109 1.91429,2.62131 3.17157,5.66468 3.95211,8.82284 0.78735,3.18577 1.69878,6.40633 1.67514,9.70448 -0.017,2.3706 -0.90882,4.72618 -2.56391,6.47298 -2.17402,2.29449 -4.99029,3.81474 -7.74487,5.28576 -5.05133,2.69754 -10.15688,5.29889 -15.35129,7.70893 -2.228,1.03373 -4.57648,1.82303 -6.72451,3.01231 -2.78221,1.54041 -5.44362,3.32035 -8.44158,4.45738 -1.79833,0.68206 -3.51212,1.56136 -5.152,2.57702 -1.8999,1.17672 -3.97186,2.01749 -6.05097,2.86669 -3.10715,1.2691 -5.69799,3.54924 -8.94384,4.55129 -2.02807,0.6261 -4.00432,1.41252 -5.88641,2.40983 -2.59567,1.37544 -5.31523,2.66941 -8.28728,2.97818 -2.66231,0.2766 -5.47994,-0.12129 -7.76535,-1.58635 z m 125.52749,0.56352 c -2.88409,-1.55041 -5.32091,-4.44709 -5.47796,-7.7692 -0.0777,-1.64267 1.20589,-2.96225 2.67779,-3.65476 5.96619,-2.80705 12.30111,-4.68062 18.43223,-7.07979 3.73871,-1.46299 7.21058,-3.62597 11.06212,-4.75735 2.56893,-0.75462 5.22874,-1.16629 7.70932,-2.27691 3.78048,-1.69261 7.55107,-3.41924 11.47829,-4.76339 1.39226,-0.47653 2.74946,-1.21016 4.21836,-1.29958 1.46566,-0.0892 2.47421,1.2428 2.99665,2.5142 1.43155,3.48378 1.69451,7.28732 1.93652,10.99771 0.30658,4.70041 1.07704,9.44416 0.49521,14.12455 -0.19772,1.59052 -1.1091,3.1444 -2.61562,3.85811 -2.23106,1.05696 -4.75099,1.07507 -7.16267,1.16503 -6.41636,0.23936 -12.837,0.001 -19.25528,0.0518 -8.12394,-0.0387 -16.29284,0.27978 -24.36378,-0.71142 -0.71771,-0.0882 -1.43278,-0.20943 -2.13118,-0.399 z m -308.5,-2.86554 c -5.49828,-1.86234 -11.40777,-2.72631 -16.48569,-5.64618 -0.97554,-0.56094 -2.30327,-1.17113 -2.43267,-2.31985 -0.12463,-1.10649 0.7793,-1.92138 1.45473,-2.66918 5.79952,-6.42089 12.3572,-12.08957 18.90995,-17.71348 2.76144,-2.37001 5.42627,-4.95577 8.65318,-6.66035 1.61264,-0.85186 3.60131,-1.13879 5.3338,-0.39348 2.56575,1.10377 4.48726,3.19858 6.4577,5.09726 3.2644,3.14553 6.67552,6.20515 9.35655,9.87332 1.00487,1.37487 1.98983,2.97206 1.88421,4.73426 -0.0893,1.48921 -0.97426,2.7681 -1.93188,3.86248 -2.00057,2.28627 -4.39461,4.17606 -6.77746,6.03713 -3.89625,3.04308 -8.25264,5.77306 -13.16308,6.71408 -3.74552,0.71777 -7.67088,0.35056 -11.25934,-0.91601 z m 140.5,-20.97378 c -4.97011,-1.34709 -10.15721,-0.75825 -15.22623,-1.37181 -6.06297,-0.73385 -12.17801,-2.36901 -17.26959,-5.82647 -2.72203,-1.84842 -4.60233,-4.67059 -5.90607,-7.68821 -3.20075,-7.40836 -6.0992,-14.96702 -8.28066,-22.73636 -0.73067,-2.60231 -1.00991,-5.32081 -1.98812,-7.85751 -1.33217,-3.45459 -3.36188,-6.72492 -3.76669,-10.46584 -0.22997,-2.12517 0.75791,-4.22936 2.26773,-5.67994 1.2872,-1.2367 2.67867,-2.36985 4.14984,-3.37954 4.63574,-3.18163 9.94408,-5.26157 15.35761,-6.68002 6.93847,-1.81802 14.1903,-2.65982 21.33863,-1.97855 2.04748,0.19513 4.16193,0.35432 6.05733,1.18064 2.63668,1.14948 4.42838,3.56908 5.7134,6.09404 1.80833,3.55319 3.4064,7.20504 5.11727,10.80642 3.86701,8.14006 8.31927,16.0833 10.99162,24.70524 1.29263,4.17044 1.37332,8.58403 1.28986,12.91874 -0.09,4.6748 -0.59461,9.48629 -2.68831,13.7303 -0.8316,1.68569 -1.90221,3.49074 -3.69836,4.2228 -2.25741,0.92004 -4.73486,1.00249 -7.13072,1.00275 -2.14267,2.3e-4 -4.30594,-0.26384 -6.32854,-0.99668 z M 98.889704,226.31013 c -1.966593,-2.37164 -2.784498,-5.45033 -3.18031,-8.44752 -1.386693,-10.50039 -1.365856,-21.10885 -1.600239,-31.67633 -0.217004,-9.78397 -0.886532,-19.60247 -0.05595,-29.36116 0.245948,-2.88968 0.434391,-5.9789 2.027349,-8.45694 1.243071,-1.93375 3.470961,-2.93506 5.690013,-3.37292 3.60451,-0.71124 7.28618,-0.7602 10.93356,-1.1212 4.58939,-0.45423 9.11036,-1.53887 13.71484,-1.78488 6.76103,-0.36123 13.54483,0.85699 19.90867,3.0667 3.36693,1.1691 6.82785,2.64066 9.22093,5.34096 1.02325,1.1546 1.44134,2.79095 1.09017,4.33053 -0.57514,2.52148 -1.72281,4.85443 -2.7807,7.19624 -3.00484,6.65169 -6.22015,13.20601 -9.54342,19.70252 -3.50208,6.84604 -7.83897,13.25556 -12.84293,19.0986 -6.47549,7.56131 -14.09137,14.02277 -21.72412,20.38209 -2.34628,1.95483 -4.51026,4.16613 -7.09411,5.8003 -0.96978,0.61334 -2.32198,0.67859 -3.250587,-0.10854 -0.199265,-0.16891 -0.373807,-0.36738 -0.513169,-0.58845 z M 421.8982,225.11445 c -4.79583,-4.20621 -7.73056,-10.27018 -8.68073,-16.53593 -0.497,-3.27741 -0.46961,-6.80937 1.06112,-9.81229 1.53978,-3.02067 4.24431,-5.22331 7.02574,-7.06097 4.45227,-2.94157 8.87953,-5.91849 13.33437,-8.85914 5.00884,-3.30636 9.94166,-6.78165 15.29892,-9.49496 5.97148,-3.0244 12.35493,-5.22427 18.89225,-6.61497 2.82549,-0.60108 5.73157,-1.23212 8.61666,-0.89399 1.30546,0.153 2.43572,0.93606 3.27512,1.9407 1.11302,1.33214 2.08181,2.79201 2.85519,4.34152 0.82659,1.65613 1.09534,3.50679 1.51965,5.30057 0.96091,4.06222 2.86073,7.81105 4.03243,11.81069 1.04171,3.5559 1.86573,7.30328 1.36804,11.00566 -0.16271,1.21039 -0.84174,2.27093 -1.69268,3.13035 -1.29942,1.31237 -2.80558,2.40916 -4.37902,3.36117 -1.90926,1.15518 -4.11396,1.62379 -6.26843,2.20046 -3.80823,1.01932 -7.16626,3.14631 -10.87201,4.46633 -5.77553,2.05728 -11.69268,3.72346 -17.29535,6.27418 -2.7463,1.25031 -5.70205,1.94321 -8.5209,2.99907 -4.3437,1.62702 -8.43641,4.13867 -13.08904,4.76129 -2.37077,0.31726 -4.79475,-0.67122 -6.48133,-2.31974 z m -241.55175,-2.47263 c -6.19657,-4.39441 -11.65508,-9.72573 -16.8258,-15.25314 -2.03972,-2.18043 -4.35609,-4.27045 -5.57144,-7.02004 -1.28322,-2.90315 -0.95974,-6.22904 -0.0319,-9.21592 1.90422,-6.12976 4.80841,-11.8732 7.61421,-17.62125 1.73927,-3.56313 3.26347,-7.33912 5.86901,-10.35031 0.9853,-1.13869 2.49343,-1.86606 4.04417,-1.66397 2.16087,0.2816 4.11026,1.29639 6.16171,1.97041 5.08162,1.6696 10.32525,3.11791 14.89643,6.00216 4.85946,3.06615 8.48294,7.91978 10.28245,13.38419 1.00294,3.04557 1.83863,6.14171 2.81596,9.19613 2.23739,6.9924 5.15127,13.75844 7.23713,20.79646 0.68033,2.29555 1.36298,4.8293 0.5727,7.13229 -0.50261,1.46469 -2.07957,2.09934 -3.47271,2.46975 -5.1536,1.37025 -10.50786,1.69288 -15.81126,1.88689 -5.09001,0.1862 -10.25479,0.23257 -15.24513,-0.84598 -0.8747,-0.18905 -1.73873,-0.45508 -2.53557,-0.86767 z M 58.745767,199.54371 c -8.370377,-3.95251 -16.331102,-8.84595 -25.035711,-12.01697 -2.581652,-0.94048 -4.93539,-2.37349 -7.318016,-3.75057 -1.907808,-1.10266 -4.135919,-1.46554 -6.12851,-2.37662 -1.212656,-0.55447 -1.782103,-1.94826 -1.686873,-3.28034 0.180592,-2.52611 1.152497,-4.88735 1.95063,-7.26035 3.728376,-11.08516 8.582967,-21.77068 14.126208,-32.05374 1.395338,-2.58844 2.541734,-5.38964 4.497632,-7.58729 0.840582,-0.94448 2.232202,-0.85662 3.38533,-0.63392 3.069398,0.59277 5.945439,1.83867 8.869526,2.90079 6.007232,2.18203 11.620481,5.26702 17.306838,8.14851 1.507503,0.7639 3.096122,1.39332 4.509625,2.32146 1.455401,0.95564 2.539393,2.43145 3.032318,4.12186 0.802472,2.75197 0.860377,5.64203 0.970389,8.48378 0.341325,8.81684 0.293029,17.64173 0.381684,26.46315 0.06389,6.35743 0.434904,12.75101 -0.294262,19.07273 -0.129059,1.11891 -0.17574,2.27525 -0.60456,3.33369 -0.289365,0.71423 -0.993764,1.26103 -1.807767,1.18707 -1.090523,-0.0991 -2.047773,-0.6688 -3.045717,-1.07172 -4.458509,-1.80012 -8.775193,-3.925 -13.108764,-6.00152 z M 302.32188,184.64526 c -1.70675,-3.2363 -2.65056,-6.81258 -4.2327,-10.11179 -1.30856,-2.72869 -3.64617,-4.97334 -4.31173,-7.97947 -0.97592,-4.40796 -4.09594,-7.98003 -4.99257,-12.42656 -0.63721,-3.16001 0.47151,-6.41124 2.24576,-9.04193 2.15464,-3.19471 4.80117,-6.02208 7.56576,-8.68339 2.42478,-2.33418 5.34685,-4.27482 8.68108,-5.01969 4.33853,-0.96924 8.81214,-0.59411 13.20322,-0.3404 8.93432,0.5162 18.15008,0.48655 26.61146,3.4286 2.73308,0.9503 4.82546,3.11019 6.49206,5.4011 2.12597,2.92238 3.80111,6.42247 3.66646,10.09007 -0.0739,2.01354 -1.36045,3.69701 -2.60804,5.18169 -3.31489,3.94483 -7.42395,7.10121 -11.65367,10.06716 -0.82616,0.57932 -1.10181,1.63624 -1.76795,2.34681 -0.94108,1.00386 -2.28496,1.41901 -3.49212,1.99833 -2.47316,1.18689 -4.79488,2.69452 -6.8012,4.59496 -2.75092,2.60573 -5.77424,4.89569 -8.77269,7.20335 -3.888,2.99227 -7.80588,5.94588 -11.67591,8.96133 -0.90875,0.70808 -2.07785,1.26234 -3.26662,0.9445 -0.99116,-0.26501 -1.63676,-1.11249 -2.20847,-1.9071 -1.05813,-1.47068 -1.79958,-3.13285 -2.68213,-4.70757 z m 89.09535,-16.2488 c -5.76649,-5.87524 -11.51262,-11.91687 -15.70733,-19.04981 -1.58034,-2.68732 -3.22308,-5.68146 -2.96162,-8.82421 0.16935,-2.03565 1.51114,-3.70416 2.84471,-5.14635 5.48109,-5.92755 12.04688,-10.68206 18.46258,-15.52334 3.93411,-2.96866 7.54586,-6.3944 11.72392,-9.0086 1.42616,-0.89235 3.21395,-1.56331 4.88248,-1.00581 2.08304,0.696 3.51669,2.47343 4.82647,4.13589 3.51116,4.45658 6.4447,9.32385 9.96587,13.7817 2.75795,3.49161 5.25464,7.17774 7.70514,10.88883 3.0816,4.66684 6.25307,9.2919 8.93114,14.20296 0.52372,0.9604 1.34373,1.82692 1.54891,2.89797 0.20985,1.09542 -0.62253,1.99713 -1.32013,2.73935 -3.87364,4.12137 -8.58831,7.34323 -13.45373,10.15419 -4.17292,2.41086 -8.47152,4.59867 -12.48829,7.29064 -3.06881,2.05668 -6.35681,4.0953 -10.03211,4.63674 -1.32679,0.19546 -2.43725,-0.73734 -3.41444,-1.49608 -4.14163,-3.21579 -7.77627,-7.01308 -11.51357,-10.67407 z M 199.62077,153.6364 c -5.65561,-1.48124 -10.95922,-3.92106 -16.30669,-6.24792 -2.87382,-1.25049 -5.34948,-3.22913 -7.65959,-5.29955 -1.27529,-1.14297 -2.85196,-2.2119 -3.40618,-3.85361 -0.55857,-1.65462 -0.13184,-3.41631 0.27451,-5.04623 1.35992,-5.45487 4.05074,-10.42653 6.21101,-15.58168 1.04591,-2.49589 1.8133,-5.11449 3.03218,-7.53093 1.45949,-2.89344 3.85663,-5.27473 6.73987,-6.7885 4.23154,-2.22165 8.99733,-2.98363 13.56433,-4.214575 7.84709,-2.115036 15.58929,-4.90036 23.71609,-5.707482 1.4107,-0.140104 3.02496,-0.533688 4.25537,0.234053 0.88232,0.550547 0.92752,1.697105 1.00667,2.628738 0.65948,7.763116 0.21728,15.565546 -0.41795,23.309236 -0.58075,7.07957 -1.45828,14.2658 -4.15457,20.87674 -1.42598,3.4963 -3.95046,6.47671 -7.02858,8.67454 -2.34879,1.67707 -4.79524,3.34929 -7.57768,4.18299 -3.54566,1.06239 -7.33837,1.17991 -10.96934,0.60528 -0.42871,-0.0678 -0.8555,-0.14796 -1.27945,-0.2411 z m 261.6331,-4.68916 c -2.63928,-1.19698 -4.57071,-3.47608 -6.19788,-5.8018 -4.69435,-6.70968 -9.53568,-13.31441 -14.28888,-19.98345 -2.17995,-3.05861 -3.96987,-6.37226 -6.04093,-9.50157 -3.16354,-4.78004 -6.99719,-9.17853 -9.25913,-14.507987 -0.76745,-1.808224 -1.40617,-3.919741 -0.65621,-5.820624 0.69984,-1.773843 2.43736,-2.866724 4.16133,-3.484128 2.54112,-0.910049 5.20544,-1.505451 7.89271,-1.703843 1.56881,-0.115821 3.17815,0.218637 4.52112,1.087623 2.15699,1.395704 3.82023,3.39173 5.48994,5.308942 5.22846,6.003447 9.95775,12.423527 14.38053,19.038437 4.68722,7.01045 9.16119,14.16539 13.3811,21.46495 1.84206,3.18639 4.20105,6.24051 5.01355,9.83532 0.20986,0.92851 -0.60952,1.64667 -1.36089,2.07714 -3.34321,1.9154 -7.03932,3.55499 -10.92424,3.61194 -2.14132,0.0314 -4.20018,-0.72505 -6.11212,-1.62095 z m -212.40536,-9.1732 c -1.41209,-0.22287 -2.9159,-1.01931 -3.3657,-2.48119 -0.89483,-2.90825 -0.51879,-5.97843 -0.3217,-8.95105 0.63687,-9.60593 1.52197,-19.1979 2.77164,-28.740641 0.83994,-6.413904 2.56859,-12.803773 5.85801,-18.420015 1.64701,-2.812043 3.65545,-5.582179 6.50214,-7.251546 1.78881,-1.048996 4.05538,-1.794736 6.03959,-1.008071 1.57141,0.623004 2.48393,2.144544 3.3271,3.521475 2.72964,4.45765 5.11678,9.11194 7.52066,13.7494 3.10583,5.991634 6.29275,11.943668 9.24648,18.011688 1.5223,3.12736 3.21529,6.2644 3.85633,9.69654 0.37709,2.01895 -0.19731,4.12495 -1.37991,5.82303 -2.62611,3.77077 -5.99063,7.00831 -9.75395,9.62979 -6.95828,4.84705 -15.44029,7.72947 -23.9431,7.39169 -2.14632,-0.0853 -4.28681,-0.39569 -6.35759,-0.9711 z M 84.573955,129.99139 c -6.964886,-1.18851 -13.487702,-4.04841 -19.867788,-7.01484 -4.762094,-2.21415 -9.976669,-3.85063 -13.959128,-7.32266 -0.872446,-0.76062 -0.979803,-2.09914 -0.406866,-3.1419 1.03233,-1.87885 2.378218,-3.55631 3.679033,-5.2506 4.290938,-5.58886 8.744325,-11.054447 13.369488,-16.368233 2.099942,-2.412595 4.272105,-4.819516 6.956261,-6.611001 3.023811,-2.018182 6.236449,-3.72776 9.436738,-5.44216 3.315064,-1.775886 6.609377,-3.850423 10.308861,-4.571483 2.522935,-0.491741 5.064036,0.439396 7.235716,1.662833 4.97824,2.804544 9.1291,6.974312 12.17602,11.772293 1.76723,2.782867 2.96042,5.94511 3.29541,9.252833 0.23286,2.29932 0.65137,4.573248 1.1617,6.828448 1.31333,5.80367 3.41677,11.49366 3.71642,17.46919 0.0853,1.70166 -0.57183,3.46567 -1.95284,4.55811 -2.29465,1.81518 -5.21375,2.6184 -8.08949,2.88912 -2.34726,0.22096 -4.70182,0.33777 -7.04222,0.65637 -5.521929,0.75169 -11.098527,1.76521 -16.692981,1.13291 -1.113731,-0.12587 -2.221618,-0.29945 -3.324334,-0.49923 z m 61.319305,-1.34361 c -1.77103,-0.47413 -3.84543,-0.91466 -4.89758,-2.48528 -2.00187,-2.98832 -3.01963,-6.47342 -4.10627,-9.85892 -1.29647,-4.03924 -1.91069,-8.25341 -2.29558,-12.48575 -0.28111,-3.09107 -1.38929,-6.016012 -2.22618,-8.985647 -0.81157,-2.879792 -1.05952,-5.994648 -0.17571,-8.90485 1.1536,-3.798595 3.63226,-6.994374 6.16106,-9.979817 4.54758,-5.368758 9.52497,-10.354045 14.5989,-15.218509 1.94763,-1.867217 3.82672,-3.857295 6.09291,-5.334509 0.84469,-0.550614 1.78139,-1.258099 2.80785,-1.140856 1.19444,0.136429 1.87398,1.28577 2.27246,2.338284 1.01511,2.681221 1.49955,5.517907 2.03435,8.321112 2.31112,12.113777 3.1372,24.661971 1.01322,36.850312 -0.77749,4.46158 -2.60952,8.63266 -4.33361,12.81413 -1.09105,2.64616 -1.79099,5.43897 -3.18656,7.97512 -1.20445,2.18882 -2.36894,4.61438 -4.53691,5.97753 -1.81974,1.14419 -4.08321,1.08584 -6.1398,0.74559 -1.03495,-0.17122 -2.05589,-0.41475 -3.08255,-0.62794 z m 215.6441,-8.75132 c -2.44298,-2.6293 -3.50379,-6.21522 -3.92452,-9.72396 -0.80145,-6.68381 -1.83914,-13.335532 -2.93395,-19.97904 -0.85923,-5.213946 -1.96058,-10.53217 -1.25714,-15.805534 0.22271,-1.669509 0.89699,-3.43229 2.38993,-4.370524 1.69205,-1.063367 3.63551,-1.586401 5.51142,-2.215206 6.19047,-2.075048 12.68832,-2.9631 19.01294,-4.514257 3.70645,-0.909035 7.36939,-2.373374 11.21244,-2.360443 2.35469,0.0079 4.52118,1.2905 6.0688,3.053766 2.23446,2.545813 3.8602,5.537777 5.49961,8.477393 1.61055,2.887868 3.24916,5.904031 3.63144,9.222493 0.33109,2.874008 -0.83648,5.699583 -2.55649,7.988575 -2.45366,3.265348 -5.54667,5.961913 -8.56996,8.675348 -7.93931,7.125609 -16.25557,13.862849 -25.12225,19.790769 -1.90712,1.27502 -3.71939,2.96587 -5.98022,3.40433 -1.26535,0.2454 -2.21962,-0.8048 -2.98205,-1.64371 z m -26.86682,-2.64548 c -6.29722,-1.28199 -12.74138,-1.52824 -19.07353,-2.59315 -2.4832,-0.41761 -5.1192,-0.63719 -7.31456,-1.88711 -2.02213,-1.15128 -3.16059,-3.2735 -4.28864,-5.21808 -3.20124,-5.51846 -6.04191,-11.23279 -8.97463,-16.895411 -3.83757,-7.409723 -8.22518,-14.565876 -11.44416,-22.264506 -1.15712,-2.767413 0.18654,-5.954849 2.40796,-7.87588 2.83407,-2.450847 6.4433,-3.747194 10.01971,-4.656127 6.45069,-1.639423 13.15766,-1.610998 19.77055,-1.600837 2.35373,0.0036 4.84315,0.246739 6.85237,1.614144 2.42599,1.651053 4.49163,3.777131 6.35315,6.025617 3.03603,3.667157 5.82221,7.705726 7.21351,12.267336 1.16426,3.817209 1.55103,7.799242 2.31954,11.704288 1.53972,7.823823 3.36486,15.694726 3.24108,23.707866 -0.0327,2.11689 0.14897,4.53112 -1.16811,6.24354 -0.96336,1.25254 -2.60458,1.69194 -4.10267,1.79758 -0.62098,0.0438 -1.26859,-0.05 -1.81157,-0.36927 z M 185.87616,84.946568 c -1.52809,-1.605305 -2.01194,-3.845853 -2.46589,-5.934187 -1.92805,-8.869662 -2.57693,-17.943509 -3.2633,-26.971159 -0.44813,-5.89418 -1.16901,-11.828251 -0.62215,-17.725359 0.13186,-1.421821 0.19411,-3.049256 1.19469,-4.101355 0.70555,-0.741883 1.82677,-0.4408 2.6736,0.02033 7.38305,4.020332 14.21208,8.946054 21.34166,13.38211 2.82781,1.759476 5.77171,3.324726 8.61327,5.060314 6.7024,4.093744 13.04304,8.733252 19.63323,13.003598 2.11202,1.368557 4.37533,2.784132 5.65091,5.008046 0.60488,1.054571 0.46701,2.399672 -0.19593,3.403636 -0.88152,1.334991 -2.27683,2.206292 -3.63028,2.988976 -1.81172,1.047693 -3.65822,2.045063 -5.56826,2.899766 -4.16379,1.863219 -8.66146,2.756345 -13.08908,3.814682 -6.20025,1.48205 -12.20092,3.713207 -18.49414,4.853077 -2.84095,0.514573 -5.62525,1.568536 -8.51031,1.616712 -1.21371,0.02027 -2.34283,-0.580974 -3.26802,-1.319186 z M 424.0872,72.97979 c 0.22977,-0.824648 1.65686,0.09698 1.03237,0.624927 -0.38904,0.3289 -1.30476,-0.05439 -1.03237,-0.624927 z m -3.83333,-3.333333 c -0.46949,-0.574952 -1.95502,-1.995561 -1.17253,-1.90639 1.18292,0.134803 2.18201,0.90546 2.8166,1.818743 0.36889,0.53089 1.36936,0.837144 1.1895,1.537336 -0.20922,0.814528 -1.22995,0.09669 -1.60478,-0.266457 -0.40836,-0.395638 -0.85664,-0.751222 -1.22879,-1.183232 z m -304.0887,-2.890946 c -3.18112,-1.907145 -5.99358,-4.766533 -7.07596,-8.371804 -0.50478,-1.681371 -0.66224,-3.727766 0.45508,-5.161568 1.88955,-2.424779 4.6281,-3.914361 7.12348,-5.611422 6.10605,-4.152604 12.64345,-7.619381 18.87678,-11.578297 1.18881,-0.755038 2.07477,-2.130362 3.55449,-2.313671 0.9954,-0.123311 2.08241,-0.165365 2.89508,-0.896238 1.91696,-1.724019 4.38035,-2.592271 6.67802,-3.664055 3.17511,-1.48108 6.2236,-3.25651 9.50583,-4.486586 0.92001,-0.344793 1.88588,-0.980423 2.8469,-0.755263 0.8451,0.198001 0.98196,1.269148 0.63883,2.017662 -1.93582,4.222834 -4.53782,8.125659 -7.53808,11.654645 -4.11325,4.838114 -8.78623,9.149352 -13.29307,13.609544 -5.02725,4.975216 -9.87058,10.177973 -15.38513,14.615208 -1.47045,1.18319 -3.1257,2.460923 -5.0685,2.504872 -1.54429,0.03493 -2.96938,-0.722734 -4.21375,-1.563027 z m 134.0887,-13.237119 c -3.47012,-1.291946 -6.35781,-3.689114 -9.49312,-5.612197 -4.30359,-2.639669 -8.76992,-4.992618 -13.0298,-7.717754 -11.05737,-7.073625 -21.81991,-14.589205 -32.84205,-21.720855 -2.1713,-1.404899 -8.97865,-3.455822 -6.50877,-4.222645 7.54893,-2.343717 15.35812,-3.677171 23.15864,-4.9079142 7.02093,-1.1077435 13.99236,-2.6033728 21.07171,-3.2739483 4.76034,-0.4509125 9.67126,-1.0177695 14.33499,0.1468364 1.86414,0.4655057 3.72192,1.657484 4.36136,3.5508819 0.61341,1.8163082 0.49221,3.7774752 1.25147,5.5813552 1.3285,3.156281 3.24231,6.050533 4.21079,9.368878 0.60098,2.059159 1.40721,4.048196 2.26572,6.013902 2.21942,5.081744 4.80743,10.147991 5.54857,15.695762 0.22256,1.66602 0.40415,3.443021 -0.23199,5.03716 -0.71637,1.795184 -2.36711,3.067796 -4.19707,3.642462 -2.4698,0.775596 -5.10027,0.176299 -7.48686,-0.672352 -0.81015,-0.288082 -1.61021,-0.603393 -2.41359,-0.909572 z m 93,-1.224185 c -3.70309,-1.871185 -7.40898,-4.733566 -8.56127,-8.75555 -0.42901,-1.497393 0.3019,-2.982952 0.95645,-4.312114 2.55094,-5.180076 5.24849,-10.486701 9.37134,-14.520483 1.14986,-1.125025 2.90545,-1.415953 4.46805,-0.963158 2.7663,0.801587 5.28864,2.215516 7.92521,3.346412 2.08056,0.892413 4.28602,1.472415 6.35141,2.393452 5.70187,2.542689 10.78576,6.208318 16.20852,9.263969 1.9441,1.095475 4.18522,1.682706 5.97832,3.005756 1.23144,0.908619 0.91517,2.904432 -0.35706,3.745034 -1.34712,0.890085 -2.99549,0.965736 -4.52131,1.338915 -9.18467,2.246357 -18.23649,5.302779 -27.68781,6.219587 -3.37658,0.327539 -6.91877,0.544656 -10.13185,-0.76182 z M 279.40886,38.817716 c -1.30841,-1.271694 -1.58145,-3.161119 -2.19563,-4.810503 -2.25335,-6.051401 -5.22325,-11.792899 -7.80078,-17.707208 -1.18403,-2.716813 -2.66898,-5.449955 -2.83574,-8.4237824 -0.0576,-1.0270064 0.80585,-1.8813294 1.8389,-2.064373 1.70245,-0.3016505 3.43257,-0.1633881 5.14972,-0.1332524 4.26279,0.074812 8.74884,0.2160491 12.57565,2.191695 1.1108,0.57347 1.40991,1.9122422 1.41444,3.1266348 0.03,8.042225 -0.61302,16.085728 -1.85173,24.02176 -0.23501,1.505623 -0.24325,3.192378 -1.16559,4.427331 -1.00419,1.344546 -3.0894,1.272548 -4.34922,0.141126 -0.27187,-0.244164 -0.52458,-0.508433 -0.78002,-0.769428 z M 304.64236,36.006 c -0.94662,-2.422986 -0.87089,-5.058175 -0.98464,-7.60854 -0.24261,-5.439769 -1.07364,-11.088153 0.47331,-16.321061 0.2827,-0.956298 1.38879,-1.22769 2.2862,-1.29752 1.83628,-0.142887 3.75439,-0.314494 5.5193,0.261726 1.25062,0.40831 2.30612,1.234845 3.58723,1.590865 2.75313,0.765096 5.82555,0.464539 8.34726,1.925416 0.85049,0.49271 1.71644,1.014423 2.743,1.083217 1.08525,0.07273 2.44908,-0.205442 3.21936,0.70344 0.60936,0.719001 0.30051,1.749658 -0.11202,2.50009 -1.27146,2.312901 -3.00413,4.306147 -4.10427,6.763793 -0.86095,1.923322 -2.73303,3.045563 -4.12456,4.539301 -0.81454,0.874372 -1.28278,2.006289 -2.19547,2.808564 -1.64328,1.444465 -3.72433,2.258547 -5.77399,2.926052 -2.34676,0.764261 -4.88142,1.369112 -7.3335,0.87702 -0.56689,-0.113766 -1.13576,-0.331512 -1.54721,-0.752363 z"
       id="path1"
       inkscape:path-effect="#path-effect1"
       inkscape:original-d="m 239.25387,505.05489 c -6.05,-0.67136 -13.20724,-1.2629 -15.90499,-1.31454 -4.8398,-0.0926 -4.88093,-0.12047 -3.09501,-2.09389 3.48087,-3.84632 37.9608,-1.96777 42.22933,2.30075 2.78621,2.78622 -4.83009,3.1494 -23.22933,1.10768 z m 40.58905,-7.15843 c -1.39732,-6.78456 1.81589,-27.02068 4.87597,-30.70785 1.48468,-1.78893 13.38581,-7.54215 15.60173,-7.54215 0.85877,0 4.0102,-1.1201 7.00317,-2.48912 11.42714,-5.22688 15.03644,-4.4293 22.57726,4.98912 8.92738,11.15024 12.14014,17.77553 11.36229,23.43113 -0.71937,5.23044 -2.4765,7.48159 -6.50947,8.33961 -1.375,0.29253 -4.975,1.27664 -8,2.18692 -3.025,0.91027 -7.525,2.06303 -10,2.56169 -2.475,0.49866 -8.775,1.81739 -14,2.93051 -5.225,1.11313 -12.25101,2.02978 -15.61336,2.037 l -6.11335,0.0131 z m -83.08905,0.6956 c -5.22347,-0.91373 -12.59598,-3.02414 -19,-5.43882 -2.475,-0.93322 -5.74301,-1.9309 -7.26224,-2.21707 -1.51923,-0.28616 -3.00829,-0.91842 -3.30902,-1.40501 -0.30072,-0.48658 -1.42022,-0.8847 -2.48776,-0.8847 -3.04164,0 -2.30384,-2.51237 2.30902,-7.86271 2.3375,-2.7112 6.41565,-7.45123 9.06256,-10.53338 6.722,-7.82734 8.78594,-7.28738 17.48106,4.57336 2.28911,3.1225 4.62843,5.96554 5.19849,6.31785 4.18558,2.58684 7.0311,19.17754 3.1509,18.37127 -0.35365,-0.0735 -2.66801,-0.48785 -5.14301,-0.92079 z m 53,-13.53839 c -0.825,-0.19844 -6,-0.8034 -11.5,-1.34437 -16.59308,-1.63206 -17.86846,-2.08571 -24.02658,-8.54617 -3.01038,-3.15819 -5.47342,-5.96783 -5.47342,-6.24363 0,-0.27581 -2.15714,-3.03757 -4.79363,-6.13725 -10.85872,-12.76639 -11.05615,-20.414 -0.81024,-31.38579 3.24284,-3.47258 3.91742,-3.75 9.11863,-3.75 3.0892,0 6.45383,-0.44801 7.47696,-0.99557 1.02313,-0.54756 5.30761,-1.04739 9.52106,-1.11072 9.07103,-0.13636 12.44901,1.32684 17.2132,7.45603 1.7743,2.28264 4.9243,6.03528 7,8.3392 12.25069,13.59754 15.31528,20.16648 12.93341,27.72265 -0.91266,2.89531 -1.65939,6.62143 -1.65939,8.28028 0,6.34374 -6.59638,9.73663 -15,7.71534 z m -107,-6.40447 c -1.925,-1.04566 -4.175,-2.23567 -5,-2.64446 -3.64665,-1.80695 -17.73103,-11.02853 -19.98978,-13.08808 -1.36938,-1.24861 -2.94898,-2.2702 -3.51022,-2.2702 -0.56124,0 -2.14084,-1.02448 -3.51022,-2.27661 -1.36938,-1.25214 -5.32691,-4.44739 -8.79452,-7.10057 -10.160686,-7.77427 -12.333458,-11.69325 -9.216044,-16.62282 1.11504,-1.76321 8.073494,-1.88004 13.790204,-0.23152 2.05182,0.59168 6.14476,1.78582 9.09541,2.65365 2.95066,0.86783 6.55066,1.58959 8,1.60391 1.44935,0.0143 5.99437,1.13932 10.10006,2.5 4.10568,1.36068 8.60568,2.48865 10,2.50661 2.61101,0.0336 12.5706,3.1695 13.72143,4.32034 0.35586,0.35585 2.30227,0.64701 4.32536,0.64701 6.75049,0 8.18021,5.55789 2.84083,11.04345 -0.77976,0.8011 -5.15547,5.84405 -9.72382,11.20655 -4.56834,5.3625 -8.37866,9.72839 -8.46738,9.70197 -0.0887,-0.0264 -1.73631,-0.90357 -3.66131,-1.94923 z m 209.74447,-13.14795 c -11.61899,-11.66282 -16.55988,-21.70725 -14.6721,-29.82722 3.39146,-14.58779 7.75855,-19.64633 15.50518,-17.96014 2.70735,0.58931 7.95828,1.46262 11.66873,1.9407 3.71046,0.47808 7.31046,1.22696 8,1.66418 0.68955,0.43721 3.95372,1.07086 7.25372,1.4081 3.3,0.33725 8.7,1.41424 12,2.39332 3.3,0.97908 8.475,2.10024 11.5,2.49147 7.01951,0.90785 16.8207,5.44284 19.8459,9.18266 l 2.3459,2.90005 -3.8459,3.72917 c -4.78563,4.64036 -18.96516,15.65372 -26.54414,20.61703 -4.76784,3.12235 -6.03394,3.552 -7.75418,2.63135 -1.48127,-0.79275 -3.17314,-0.79947 -6.05289,-0.024 -2.19833,0.59195 -7.03395,1.52712 -10.74582,2.07816 -3.71188,0.55104 -8.19356,1.25571 -9.9593,1.56594 -2.86759,0.50381 -3.78012,-0.008 -8.5451,-4.79074 z m -77.11291,-22.10479 c -1.98065,-2.3375 -4.42123,-5.15 -5.42353,-6.25 -1.0023,-1.1 -2.90833,-3.575 -4.23564,-5.5 -1.32731,-1.925 -4.33908,-5.88001 -6.69284,-8.78891 -6.23156,-7.70133 -6.0411,-8.33948 9.61361,-32.21109 1.98376,-3.025 3.77564,-5.95 3.98195,-6.5 0.68431,-1.82431 5.46483,-5.54722 7.91165,-6.16133 3.43403,-0.86189 35.36627,1.68711 38.41081,3.06615 2.81924,1.27699 6.45478,6.84762 7.241,11.09518 0.40722,2.2 1.25013,4.6166 1.87314,5.37022 3.42597,4.14426 0.34762,20.84403 -5.86817,31.83431 -2.98605,5.27969 -12.48352,12.29547 -16.64476,12.29547 -0.96069,0 -5.14515,1.35 -9.29878,3 -11.33765,4.50379 -16.24198,4.21003 -20.86844,-1.25 z M 165.25387,433.09707 c -3.85,-1.2924 -7.9158,-2.37249 -9.03511,-2.40021 -1.11932,-0.0277 -5.39432,-1.16368 -9.5,-2.52436 -4.10569,-1.36068 -8.36489,-2.48604 -9.46489,-2.50081 -2.02631,-0.0272 -10.93442,-3.12631 -11.97372,-4.16562 -0.79343,-0.79343 11.78357,-6.85961 14.222,-6.85961 1.10157,0 4.54668,-1.125 7.6558,-2.5 3.10912,-1.375 6.37786,-2.5 7.26386,-2.5 0.88601,0 5.79153,-1.40673 10.90116,-3.12606 10.96759,-3.69047 13.08627,-3.42175 16.9471,2.14944 5.26791,7.60159 5.02491,17.75965 -0.56276,23.52465 -4.01513,4.14257 -6.41025,4.27396 -16.45344,0.90258 z m 272.17424,-9.49221 c -4.21713,-3.3172 -7.62027,-12.0517 -8.75023,-22.4584 -0.41804,-3.85 -1.49696,-10.15 -2.39761,-14 -0.90065,-3.85 -1.98257,-10.62609 -2.40428,-15.05797 -0.4217,-4.43189 -1.07557,-8.5577 -1.45305,-9.16846 -2.094,-3.38817 -3.71108,-18.56051 -2.22063,-20.83522 8.13916,-12.42193 19.43692,-15.30321 36.96133,-9.42629 4.90038,1.64336 9.61583,2.98794 10.47879,2.98794 0.86296,0 4.50356,1.08736 8.09023,2.41636 3.58666,1.329 8.61145,2.69948 11.1662,3.04552 l 4.64498,0.62917 -2.78143,7.20448 c -8.06461,20.88898 -23.41228,46.91009 -38.95378,66.04397 -8.85,10.89566 -9.18744,11.13057 -12.38052,8.6189 z M 70.331726,421.72772 c -2.57564,-2.68839 -2.813049,-5.08126 -0.504137,-5.08126 0.955174,0 4.915484,5.8328 4.922547,7.25 0.0075,1.51204 -1.690523,0.67856 -4.41841,-2.16874 z M 202.49294,409.37101 c -1.37407,-1.8015 -4.17303,-7.089 -6.2199,-11.75 -2.04687,-4.661 -4.80104,-10.60875 -6.12038,-13.21722 -1.31933,-2.60847 -2.39879,-5.30134 -2.39879,-5.98415 0,-0.68282 -1.09448,-3.49861 -2.43217,-6.25733 -3.99473,-8.23831 -6.08997,-17.07446 -4.74742,-20.02103 2.82715,-6.20494 11.92428,-8.61271 20.99528,-5.55691 3.36667,1.13415 7.18541,2.06209 8.4861,2.06209 1.30068,0 2.65603,0.29116 3.01189,0.64701 0.94993,0.94993 10.90177,4.28229 12.90239,4.32034 1.56607,0.0298 6.66031,1.95035 11.02036,4.15473 0.95504,0.48286 2.75504,0.88549 4,0.89474 2.52801,0.0188 18.40301,6.22262 19.99383,7.81344 2.6288,2.6288 1.21365,5.87137 -9.69674,22.21825 -0.56843,0.85169 -1.93352,3.03396 -3.03352,4.84949 -7.54713,12.45645 -10.77335,14.53717 -27.08626,17.46898 -13.58959,2.44237 -15.70065,2.25671 -18.67467,-1.64243 z m 194.76093,1.59107 c -6.45442,-1.92748 -10.60562,-2.91351 -18,-4.27553 -11.98601,-2.20777 -15.05113,-2.88811 -17.8151,-3.95424 -1.5483,-0.59722 -4.16583,-1.08585 -5.81672,-1.08585 -7.64638,0 -16.86818,-13.90684 -16.86818,-25.43788 0,-5.25898 0.37964,-6.18859 5.254,-12.86535 2.8897,-3.95822 5.84564,-8.32177 6.56875,-9.69677 0.72312,-1.375 2.89643,-4.3 4.82957,-6.5 l 3.51481,-4 19.15861,0.29367 c 15.16563,0.23246 19.64664,0.61344 21.50023,1.82795 3.6797,2.41104 6.12704,8.95964 6.15207,16.46171 0.0121,3.62084 0.35886,6.92024 0.77063,7.332 0.97954,0.97955 3.07282,12.01058 4.19085,22.08467 0.48832,4.4 1.43241,10.34275 2.098,13.20611 1.7117,7.36382 1.1029,8.3134 -5.25614,8.19828 -2.90476,-0.0526 -7.53138,-0.76753 -10.28138,-1.58877 z M 91.153578,409.94429 c -1.944191,-1.40974 -3.608433,-5.45623 -5.021268,-12.20886 -3.177536,-15.18701 -1.192634,-18.36254 17.12317,-27.3944 17.66187,-8.70939 24.56712,-11.69457 27.05165,-11.69457 1.28079,0 2.56738,-0.38618 2.85909,-0.85818 1.80028,-2.91291 23.18676,-3.36172 27.68604,-0.58101 1.86412,1.15209 5.64638,8.00157 6.33131,11.46569 0.69679,3.52413 1.11049,4.71996 3.79627,10.9735 0.95546,2.22467 1.20973,4.29326 0.69783,5.67701 -0.82266,2.22381 -8.61676,6.32299 -12.0224,6.32299 -1.01441,0 -4.3882,1.125 -7.49732,2.5 -3.10912,1.375 -6.70668,2.5 -7.99458,2.5 -2.09509,0 -6.75555,1.64957 -11.64593,4.12208 -0.95504,0.48286 -2.48028,0.87792 -3.38943,0.87792 -0.90915,0 -5.97776,1.37836 -11.26357,3.06302 -5.28581,1.68467 -11.04048,3.50201 -12.78814,4.03854 -4.65618,1.42945 -12.653488,2.11659 -13.922722,1.19627 z M 45.57192,389.14646 c -0.626492,-1.375 -1.516844,-2.5 -1.978561,-2.5 -0.461717,0 -0.839485,-0.44207 -0.839485,-0.98239 0,-0.54031 -1.701584,-3.80281 -3.781298,-7.25 -3.386556,-5.61331 -11.133221,-21.04772 -13.183944,-26.26761 -0.432154,-1.1 -1.334375,-3.35 -2.004936,-5 -0.670562,-1.65 -1.900999,-5.00546 -2.734306,-7.45659 l -1.515102,-4.45659 2.859793,-2.28844 c 4.534797,-3.62881 6.379785,-2.97209 13.940794,4.96221 8.834588,9.27075 15.379554,16.52922 17.918999,19.87245 1.1,1.44818 4.346158,5.3894 7.213685,8.75828 6.167474,7.24579 8.042325,12.64198 6.352237,18.28299 -1.659543,5.53906 -4.168432,6.82569 -13.309867,6.82569 -7.348441,0 -7.864729,-0.14441 -8.938009,-2.5 z m 265.18195,-25.55104 c -2.475,-0.44039 -8.40821,-0.83407 -13.1849,-0.87484 -9.75479,-0.0833 -13.08046,-1.02352 -17.0651,-4.82483 l -2.75,-2.62347 v -18.22312 c 0,-17.91865 0.0472,-18.32288 2.82364,-24.19371 3.16257,-6.68724 9.23795,-16.18529 11.61442,-18.15758 0.85907,-0.71297 1.56194,-1.75634 1.56194,-2.31862 0,-0.56227 0.93674,-1.96967 2.08165,-3.12755 1.14491,-1.15788 4.43039,-5.48024 7.30106,-9.60524 8.67272,-12.46221 10.29986,-11.57976 24.89256,13.5 0.96005,1.65 3.37965,6.375 5.37687,10.5 1.99722,4.125 4.3219,8.85 5.16594,10.5 6.56707,12.83773 7.44802,17.15095 4.61998,22.61978 -2.05702,3.97783 -11.55108,17.41951 -15.54771,22.01242 -2.74595,3.15564 -8.71998,6.13717 -11.50637,5.74263 -0.48619,-0.0688 -2.90898,-0.48548 -5.38398,-0.92587 z M 80.248692,361.626 c -2.033877,-0.76032 -8.260022,-7.13865 -18.994818,-19.45908 -3.3,-3.78744 -8.269246,-9.39145 -11.042769,-12.45336 -9.634708,-10.6365 -10.457231,-12.56923 -10.457231,-24.57198 v -10.54775 l 4.431746,-4.43175 c 2.43746,-2.43746 5.92496,-5.12728 7.75,-5.97737 1.82504,-0.85009 5.118254,-2.88731 7.318254,-4.52714 2.2,-1.63984 6.439263,-4.45068 9.420585,-6.24631 2.981321,-1.79564 7.031321,-4.29508 9,-5.55431 6.55958,-4.19571 12.359191,-6.52378 13.873025,-5.56888 2.041567,1.28779 5.442121,7.89408 7.64828,14.85839 1.045366,3.3 2.730306,7.90254 3.744306,10.22787 4.56169,10.46104 12.11762,29.17089 13.40709,33.19837 0.77942,2.43444 2.31264,5.94403 3.40716,7.7991 1.22132,2.06997 2.08844,5.57502 2.24479,9.07375 l 0.25476,5.70091 -17.5,8.73229 C 84.428639,362.0208 82.915148,362.62281 80.248692,361.626 Z M 252.25387,345.71269 c -1.65,-0.44001 -5.37916,-1.75992 -8.28702,-2.93313 -2.90786,-1.1732 -6.40147,-2.1331 -7.76357,-2.1331 -1.3621,0 -3.25794,-0.39707 -4.21298,-0.88238 -0.95504,-0.48531 -3.53643,-1.33268 -5.73643,-1.88305 -2.2,-0.55036 -6.925,-2.0281 -10.5,-3.28387 -3.575,-1.25576 -7.7375,-2.71298 -9.25,-3.23827 -3.97189,-1.37943 -3.70465,-6.31793 0.82319,-15.21243 5.39405,-10.59606 7.94298,-11.93578 17.2926,-9.08894 2.54881,0.77608 8.45921,2.58978 13.13421,4.03045 4.675,1.44067 9.25019,2.6057 10.16709,2.58895 2.0629,-0.0377 9.6356,3.32278 12.33291,5.47287 1.82004,1.45078 1.9846,2.67753 1.82887,13.63325 -0.0941,6.62146 -0.35194,12.21982 -0.57292,12.4408 -0.93544,0.93544 -6.48265,1.22841 -9.25595,0.48885 z m -110.33669,-8.81623 c -2.58874,-2.20103 -7.1531,-10.8602 -7.19452,-13.64894 -0.0172,-1.15558 -1.13986,-3.90106 -2.49488,-6.10106 -1.35501,-2.2 -2.46597,-4.68646 -2.46879,-5.52546 -0.003,-0.839 -1.341,-4.214 -2.97374,-7.5 -1.63274,-3.286 -2.98274,-6.52707 -3,-7.20239 -0.0173,-0.67531 -1.1067,-3.60031 -2.42098,-6.5 -4.41672,-9.74456 -5.82476,-13.23717 -8.31659,-20.62904 -3.04953,-9.0463 -2.44581,-10.15966 4.46203,-8.22855 2.60929,0.72943 6.54416,1.68895 8.74416,2.13227 13.48338,2.71701 18.67034,11.05446 19.87897,31.95317 0.27037,4.675 0.95424,10.525 1.51973,13 4.31532,18.88728 4.56274,28.37357 0.76661,29.39186 -3.36277,0.90204 -4.28949,0.73929 -6.502,-1.14186 z m 26.88504,-2.20165 c -1.09861,-1.09861 -2.18692,-3.02142 -2.41845,-4.27291 -2.21616,-11.97869 -2.63218,-15.17442 -2.64726,-20.33564 -0.01,-3.26689 -0.68455,-9.08963 -1.5,-12.93943 -0.81545,-3.84979 -1.48264,-9.36229 -1.48264,-12.25 v -5.25037 h 4.97149 c 3.1288,0 7.06675,0.92663 10.62443,2.5 3.10912,1.375 6.52481,2.5 7.59044,2.5 2.93295,0 12.69426,4.90842 13.77418,6.92627 1.13157,2.11436 -1.03513,10.22657 -4.59639,17.20906 -1.30028,2.54943 -2.36415,5.18447 -2.36415,5.85564 0,0.67118 -1.125,2.5573 -2.5,4.1914 -1.375,1.63409 -2.5,3.51443 -2.5,4.17852 0,1.47053 -9.63205,10.96663 -12.72708,12.54745 -1.84618,0.94295 -2.56872,0.79586 -4.22457,-0.85999 z m 196.78214,-9.07514 c -6.50249,-3.43491 -10.18837,-11.42685 -8.45509,-18.3328 0.60359,-2.4049 8.30032,-6.88372 18.58782,-10.81647 2.87307,-1.09834 12.66068,-5.89401 21.57242,-10.56994 6.32202,-3.31711 19.36332,-9.19596 21.68927,-9.77724 3.39591,-0.84867 3.95298,0.36185 6.30382,13.6983 2.79116,15.83448 1.93009,22.7628 -3.51907,28.3151 -2.43434,2.48041 -4.85241,4.50984 -5.37348,4.50984 -0.52107,0 -2.42235,1.125 -4.22507,2.5 -4.5352,3.45917 -40.24134,3.8219 -46.58062,0.47321 z m 122.66951,-0.20336 c -2.75,-1.12636 -6.8,-2.39581 -9,-2.82099 -2.2,-0.42519 -6.025,-1.55485 -8.5,-2.51036 -2.475,-0.95551 -6.525,-2.06882 -9,-2.47402 -6.47531,-1.06013 -15.09519,-4.58995 -17.60574,-7.20952 -2.86387,-2.98824 -4.59316,-38.51507 -1.98029,-40.68356 1.09904,-0.91213 8.01357,-1.13939 27.27912,-0.89661 39.99751,0.50404 39.69069,0.10776 31.22225,40.32521 -4.06638,19.31165 -4.28604,19.5995 -12.41534,16.26985 z M 13.576818,314.89646 c -0.620156,-1.5125 -1.478197,-5 -1.90676,-7.75 -0.428563,-2.75 -1.250501,-7.475 -1.8265276,-10.5 -4.5789904,-24.04649 -4.438563,-24.34186 6.2745876,-13.19795 7.043604,7.32682 8.827897,14.52343 6.149961,24.80472 -2.336262,8.96952 -6.448618,12.11283 -8.691261,6.64323 z M 252.29012,299.0581 c -3.28006,-1.3264 -6.93599,-2.41164 -8.12427,-2.41164 -1.18829,0 -4.07368,-0.675 -6.41198,-1.5 -2.3383,-0.825 -5.43238,-1.53628 -6.87573,-1.58061 -1.44335,-0.0443 -4.42427,-1.05835 -6.62427,-2.25336 -5.07823,-2.75842 -5.97966,-9.06797 -2.46113,-17.22654 1.17163,-2.71672 2.80975,-6.92478 3.64026,-9.35124 2.30773,-6.74241 8.83194,-19.64708 11.23945,-22.23123 2.68782,-2.88504 7.02258,-2.98961 20.08142,-0.48444 5.225,1.00235 12.97689,2.197 17.22642,2.65477 12.07351,1.3006 24.19451,9.92035 22.30801,15.86416 -0.83343,2.62591 -20.28641,30.22151 -25.6302,36.35849 -4.9479,5.68232 -8.59909,6.11201 -18.36798,2.16164 z m 93.32121,-10.16164 c -0.79888,-0.9625 -2.74659,-3.775 -4.32824,-6.25 -1.58164,-2.475 -3.92276,-6.09919 -5.20247,-8.05375 -4.79232,-7.31953 -5.70356,-6.62666 32.17325,-24.46327 6.6,-3.10801 12.75388,-6.04595 13.67528,-6.52877 0.92141,-0.48281 5.08528,-2.69502 9.25306,-4.91602 11.43479,-6.09359 14.82093,-5.58358 20.75922,3.12665 4.58263,6.72177 6.47662,12.72562 4.92754,15.6201 -0.70416,1.31574 -11.49245,7.21276 -29.36411,16.05083 -38.10354,18.84334 -38.82654,19.10936 -41.89353,15.41423 z M 30.253874,274.21494 c -2.98856,-1.34807 -13.620946,-11.81357 -16.832681,-16.56848 -7.4991075,-11.10228 -6.9574636,-9.22452 -6.3217358,-21.916 0.3191393,-6.3712 1.251432,-15.409 2.0717622,-20.084 0.820329,-4.675 1.7614116,-10.075 2.0912936,-12 1.664801,-9.71481 0.824284,-9.48098 12.931704,-3.59771 23.095048,11.22239 36.265091,17.40348 38.559657,18.09719 8.911049,2.69405 18.263409,10.76678 20.590602,17.7733 2.684266,8.08157 0.809301,10.20669 -19.590602,22.20437 -3.575,2.10255 -7.4,4.57454 -8.5,5.49331 -4.091729,3.41762 -20.280082,12.31535 -21.8151,11.9904 -0.101695,-0.0215 -1.5349,-0.6481 -3.1849,-1.39238 z m 163.999996,-2.55485 c -9.67859,-2.52175 -29.82961,-10.50246 -30.33323,-12.01333 -0.92043,-2.76128 13.45534,-13.75995 22.83323,-17.46933 5.48966,-2.17141 27.82773,-3.91883 29.74588,-2.32691 2.39414,1.98697 2.02443,3.11574 -8.35875,25.51982 -3.29369,7.10688 -6.01697,8.34031 -13.88713,6.28975 z m 120.47251,-19.73783 c -10.28928,-7.17521 -13.56367,-16.13852 -9.47251,-25.93004 0.825,-1.97451 1.5,-4.28008 1.5,-5.12349 0,-0.84342 1.125,-3.00844 2.5,-4.81116 1.375,-1.80272 2.5,-3.70292 2.5,-4.22269 0,-1.21073 9.0076,-9.23307 20.5,-18.25766 4.95,-3.88707 11.23031,-8.94916 13.95625,-11.24908 19.43677,-16.39916 20.72712,-16.53308 33.36399,-3.4627 12.25475,12.67515 14.60668,15.78487 16.0134,21.1729 4.10279,15.71451 3.28635,17.21164 -14.18042,26.00303 -7.23427,3.64115 -13.49966,6.61686 -13.92309,6.61268 -0.42343,-0.004 -2.44843,1.05167 -4.5,2.34632 -2.05157,1.29465 -4.85513,2.70369 -6.23013,3.13119 -1.375,0.42751 -3.625,1.55922 -5,2.5149 -1.375,0.95568 -3.625,2.08068 -5,2.5 -1.375,0.41932 -3.65245,1.57343 -5.06099,2.56471 -1.40855,0.99127 -3.84263,2.12398 -5.40907,2.51713 -1.56645,0.39315 -4.689,1.76765 -6.93901,3.05445 -4.88788,2.7954 -11.13497,3.06869 -14.61842,0.63951 z m 125.52749,0.56352 c -4.72469,-2.59827 -7.02142,-8.34009 -4.25,-10.625 0.6875,-0.56681 3.725,-1.92783 6.75,-3.0245 12.93356,-4.68886 18.69403,-6.9504 21.70034,-8.51948 1.76019,-0.91869 4.00305,-1.67034 4.98415,-1.67034 0.9811,0 4.04094,-1.07743 6.79966,-2.39429 4.44751,-2.12299 8.54979,-3.71095 13.60242,-5.26539 3.31456,-1.01972 5.07882,4.15751 5.65134,16.58397 0.80771,17.53086 3.29343,16.08174 -27.52309,16.0453 -16.76474,-0.0198 -26.41092,-0.41322 -27.71482,-1.13027 z m -308.5,-2.86554 c -1.375,-0.44741 -5.18564,-1.57847 -8.4681,-2.51347 -6.66046,-1.89723 -10.5319,-4.0722 -10.5319,-5.91681 0,-1.25891 7.89251,-9.03881 18.50547,-18.24143 13.98127,-12.12334 13.81718,-12.11664 25.08547,-1.02438 10.44782,10.2846 10.87282,12.38365 3.77277,18.63336 -11.07719,9.75053 -18.73254,12.19656 -28.36371,9.06273 z m 140.5,-20.97378 c -1.1,-0.47269 -4.94296,-0.89106 -8.5399,-0.92971 -12.93986,-0.13907 -24.21357,-4.31993 -28.10466,-10.42262 -2.70367,-4.24038 -10.85544,-26.75917 -10.85544,-29.98753 0,-0.98356 -1.125,-4.2478 -2.5,-7.25385 -3.69223,-8.07204 -3.371,-10.55867 1.92456,-14.89798 8.12757,-6.65994 22.88259,-10.86677 36.24547,-10.33403 9.16562,0.36541 11.72266,1.85733 14.90622,8.6971 0.92891,1.99574 3.61589,7.67862 5.97106,12.62862 10.33471,21.72104 10.83411,23.24419 10.81981,33 -0.0135,9.18494 -1.53742,14.82072 -5.06025,18.7134 -1.75749,1.94201 -10.97817,2.43185 -14.80687,0.7866 z M 98.889704,226.31013 c -3.435579,-4.13962 -4.127779,-9.92907 -4.787204,-40.03937 -0.905621,-41.35201 -1.10264,-40.79963 15.0107,-42.08475 4.47737,-0.35709 10.52559,-1.11113 13.4405,-1.67565 10.34927,-2.00428 28.37747,2.36311 32.95017,7.98229 2.5925,3.1858 2.46603,3.54416 -10.62269,30.10007 -6.82394,13.84522 -16.61439,25.46745 -32.05608,38.05374 -2.36172,1.925 -5.69419,4.7375 -7.40549,6.25 -3.47295,3.06949 -4.8994,3.37831 -6.529906,1.41367 z M 421.8982,225.11445 c -4.78144,-4.02332 -8.29065,-11.14949 -8.84815,-17.96799 -0.61375,-7.50641 1.68385,-11.36033 9.8363,-16.4991 3.05472,-1.9255 7.48132,-4.8509 9.83689,-6.5009 2.35557,-1.65 5.6886,-3.8442 7.40674,-4.876 1.71814,-1.0318 4.24889,-2.62183 5.62389,-3.5334 9.45687,-6.26952 29.82882,-11.93225 33.54818,-9.32529 2.10412,1.47482 5.45182,7.09887 5.45182,9.15893 0,1.16353 1.09974,4.82198 2.44386,8.12989 2.80371,6.89997 4.05802,13.81007 3.15783,17.39673 -0.64838,2.58337 -7.86621,7.54914 -10.97279,7.54914 -0.93246,0 -3.81793,1.06072 -6.41214,2.35715 -2.59422,1.29644 -7.41676,3.12975 -10.71676,4.07403 -3.3,0.94428 -8.37247,2.80856 -11.27215,4.14285 -2.89969,1.33428 -5.74926,2.42597 -6.33239,2.42597 -0.58313,0 -4.13609,1.35 -7.89546,3 -8.3363,3.65882 -10.96516,3.74164 -14.85567,0.46799 z m -241.55175,-2.47263 c -5.50502,-3.51886 -20.45895,-18.19399 -22.13174,-21.71912 -2.41096,-5.08072 -1.44066,-9.07095 5.99116,-24.63795 7.22352,-15.13069 8.22098,-16.12306 14.05442,-13.9825 2.19647,0.80598 5.56858,1.93949 7.49358,2.5189 12.19755,3.67137 18.5614,9.42429 21.44417,19.38554 1.98082,6.84462 5.32933,16.76777 8.16625,24.20029 2.64231,6.92265 3.04433,11.49237 1.13958,12.95339 -4.2966,3.29564 -31.49815,4.25969 -36.15742,1.28145 z M 58.745767,199.54371 c -7.970541,-3.90651 -16.516893,-8.12083 -18.991893,-9.36515 -2.475,-1.24432 -5.625,-2.60712 -7,-3.02845 -1.375,-0.42132 -3.652448,-1.57708 -5.060995,-2.56836 -1.408547,-0.99127 -3.752589,-2.10138 -5.208982,-2.46691 -4.657687,-1.16901 -4.936472,-2.51386 -2.189669,-10.56291 1.389948,-4.07301 2.916101,-8.30547 3.391452,-9.40547 0.475351,-1.1 1.637861,-3.8 2.583355,-6 4.488494,-10.44394 12.006358,-24.70874 13.421074,-25.46587 0.955776,-0.51152 3.14916,-0.26845 5.57018,0.61727 2.196472,0.80357 5.118585,1.8341 6.493585,2.29007 1.375,0.45596 4.525,1.83476 7,3.06401 2.475,1.22924 6.882727,3.41838 9.79495,4.86475 9.158606,4.54868 8.665392,2.71455 9.002253,33.47681 0.318639,29.09819 0.110858,31.65296 -2.574362,31.65296 -0.95648,0 -8.260407,-3.19624 -16.230948,-7.10275 z M 302.32188,184.64526 c -1.96241,-3.85067 -3.56801,-7.57121 -3.56801,-8.26787 0,-0.69666 -1.125,-2.92225 -2.5,-4.94574 -1.375,-2.0235 -2.5,-4.26904 -2.5,-4.99009 0,-0.72106 -1.125,-3.42432 -2.5,-6.00725 -4.22645,-7.93936 -3.56665,-12.08205 3.11773,-19.57529 8.45235,-9.47516 11.36484,-10.62662 25.02685,-9.89446 9.52679,0.51056 18.12468,1.5503 26.85542,3.24764 6.07389,1.18082 12.69454,12.16218 10.62087,17.61634 -1.09859,2.88952 -8.58889,10.40365 -12.37087,12.41023 -1.5125,0.80248 -2.75,1.90863 -2.75,2.45812 0,0.54949 -1.0125,1.45726 -2.25,2.01726 -3.93834,1.78221 -7.18451,3.80912 -8.23297,5.14067 -0.81969,1.04101 -6.56377,5.63394 -15.01703,12.00751 -0.55,0.41469 -2.41496,1.88576 -4.14436,3.26906 -4.71444,3.77094 -5.84329,3.25354 -9.78763,-4.48613 z m 89.09535,-16.2488 c -12.69278,-12.78319 -18.66336,-21.73309 -18.66336,-27.97637 0,-3.43986 6.76974,-9.84209 23.5,-22.22425 1.1,-0.81412 3.95508,-3.07078 6.34461,-5.0148 7.08041,-5.7603 9.21597,-5.02083 16.43097,5.68947 2.49131,3.69823 5.13598,7.38385 5.87704,8.19027 3.57357,3.88875 18.84738,27.46423 18.84738,29.09137 0,2.38482 -9.91782,10.10522 -18.84913,14.67286 -3.00456,1.53659 -6.18014,3.37679 -7.05685,4.08934 -3.06781,2.49336 -9.88579,5.73211 -12.06682,5.73211 -1.4856,0 -6.15202,-3.97969 -14.36384,-12.25 z M 199.62077,153.6364 c -1.99821,-0.50056 -6.13187,-2.05307 -9.18593,-3.45003 -3.05405,-1.39695 -5.87257,-2.53991 -6.26339,-2.53991 -2.11795,0 -11.48133,-7.4058 -12.0059,-9.49586 -0.6668,-2.65674 0.65773,-7.44388 4.15141,-15.00414 1.27081,-2.75 3.27131,-7.58747 4.44556,-10.74994 2.42271,-6.5248 6.56177,-9.68785 15.49135,-11.83844 2.75,-0.662313 8.77665,-2.297403 13.39256,-3.63354 11.65861,-3.374743 19.13302,-4.501746 20.78166,-3.133494 1.72035,1.427762 0.83278,27.283094 -1.27618,37.175834 -2.6515,12.43768 -4.966,15.74936 -14.98038,21.43452 -3.03885,1.72515 -10.17593,2.33091 -14.55076,1.235 z m 261.6331,-4.68916 c -3.37041,-1.81907 -3.74068,-2.23504 -10.05923,-11.30078 -2.49167,-3.575 -6.53304,-9.2 -8.98082,-12.5 -2.44779,-3.3 -4.85788,-6.9 -5.35575,-8 -0.49788,-1.1 -2.40784,-4.025 -4.24435,-6.5 -11.61509,-15.653239 -10.95367,-20.346608 3.15623,-22.396345 4.98358,-0.72396 6.71166,0.620697 16.57367,12.896345 8.74832,10.88939 27.41025,41.07166 27.41025,44.33109 0,1.56208 -8.7206,5.17575 -12.37712,5.12887 -1.71758,-0.022 -4.47288,-0.76865 -6.12288,-1.65918 z m -212.40536,-9.1732 c -4.98496,-1.39489 -4.98407,-1.36162 -1.04924,-39.12758 1.59177,-15.27761 9.24524,-28.102431 16.69058,-27.9682 3.70295,0.06676 3.51296,-0.223495 17.39879,26.581537 9.63801,18.605113 10.07958,20.352143 6.40346,25.334853 -8.98143,12.17364 -26.32817,18.84932 -39.44359,15.17939 z M 84.573955,129.99139 C 80.54791,129.31582 74.553874,127.52493 71.253874,126.01163 48.067673,115.37901 48.282396,115.54116 51.296863,110.94051 c 2.729609,-4.16591 16.955866,-21.475901 20.12386,-24.485977 3.128894,-2.972924 18.260644,-11.136694 22.57473,-12.17935 7.799667,-1.885075 22.758417,12.983571 22.758417,22.621329 0,1.392045 1.125,6.860888 2.5,12.152968 3.39309,13.05929 3.30464,15.13578 -0.75,17.60794 -1.7875,1.08986 -4.825,2.00778 -6.75,2.03981 -1.925,0.032 -7.18096,0.6127 -11.67992,1.29036 -6.472291,0.9749 -9.708039,0.9757 -15.499995,0.004 z m 61.319305,-1.34361 c -1.84833,-0.43668 -3.94072,-1.40312 -4.64975,-2.14764 -2.19086,-2.30055 -6.48964,-15.73914 -6.48964,-20.28755 0,-2.37307 -0.675,-6.227833 -1.5,-8.566133 -3.82663,-10.845814 -1.74909,-15.396004 14.52027,-31.802153 14.57669,-14.699235 15.43802,-14.877731 17.84389,-3.697847 4.11044,19.100911 3.53105,39.160653 -1.428,49.440273 -1.33989,2.77746 -2.43616,5.54831 -2.43616,6.15745 0,0.60914 -1.22386,3.28471 -2.71968,5.94572 -3.33541,5.93354 -5.52098,6.75813 -13.14093,4.95788 z m 215.6441,-8.75132 c -2.65879,-3.0481 -3.53547,-5.57447 -4.25088,-12.25 -0.38312,-3.575 -1.41032,-10.550003 -2.28266,-15.500003 -2.65192,-15.048034 -2.35868,-20.66844 1.16686,-22.365223 3.65643,-1.759774 11.69475,-4.090069 17.58319,-5.097336 2.475,-0.423369 7.18204,-1.50499 10.4601,-2.403602 10.10836,-2.771001 11.95424,-1.871613 18.15736,8.847032 6.10679,10.552186 5.96825,14.506686 -0.75441,21.53515 -9.30146,9.724562 -34.27022,28.983982 -37.5761,28.983982 -0.53733,0 -1.66389,-0.7875 -2.50346,-1.75 z m -26.86682,-2.64548 c -0.22917,-0.21751 -5.33483,-0.92017 -11.34591,-1.56147 -6.01108,-0.64129 -12.31108,-1.74659 -14,-2.45621 -3.35284,-1.40873 -3.56642,-1.75338 -15.85644,-25.586843 -4.39602,-8.525 -8.6697,-16.800883 -9.49705,-18.39085 -4.17187,-8.017283 7.28235,-14.764642 25.42656,-14.978068 11.03707,-0.129826 11.18077,-0.101506 15,2.956143 5.45094,4.363987 11.6211,13.982539 12.453,19.412775 0.37917,2.475 1.6375,9.224109 2.79629,14.998019 2.77431,13.823624 2.84148,23.538474 0.17262,24.966804 -1.96824,1.05337 -4.39553,1.35493 -5.14907,0.6397 z M 185.87616,84.946568 c -2.54121,-2.057751 -4.34777,-13.239381 -6.083,-37.650508 -0.92643,-13.033065 -0.33904,-17.649603 2.24569,-17.649603 0.73396,0 6.4826,3.408966 12.77475,7.57548 6.29215,4.166514 13.20096,8.487997 15.35291,9.603295 2.15195,1.115298 6.57335,3.893831 9.82534,6.17452 3.25199,2.280688 8.41562,5.728036 11.47473,7.660774 7.22275,4.563308 8.79329,6.818501 6.76507,9.714197 -1.91035,2.7274 -12.63931,7.772905 -18.44001,8.671778 -2.45422,0.380305 -7.15385,1.575079 -10.44362,2.655054 -3.28976,1.079974 -8.48176,2.393613 -11.53777,2.919197 -3.05601,0.525583 -6.4822,1.226196 -7.61377,1.556917 -1.25912,0.368003 -2.9354,-0.109664 -4.32032,-1.231101 z M 424.0872,72.97979 c 0.36667,-0.366666 0.96667,-0.366666 1.33334,0 0.36666,0.366667 0.0667,0.666667 -0.66667,0.666667 -0.73333,0 -1.03333,-0.3 -0.66667,-0.666667 z m -3.83333,-3.333333 c -0.99549,-1.1 -1.49641,-2 -1.11317,-2 0.38324,0 1.66283,0.9 2.84354,2 1.18072,1.1 1.68164,2 1.11318,2 -0.56847,0 -1.84806,-0.9 -2.84355,-2 z m -304.0887,-2.890946 c -4.51876,-2.755516 -7.4113,-6.908478 -7.4113,-10.640782 0,-3.017117 0.73197,-3.747879 9.75,-9.733859 5.3625,-3.559517 11.63197,-7.424495 13.93215,-8.588841 2.30018,-1.164346 4.46424,-2.573423 4.80902,-3.131282 0.34477,-0.55786 1.46281,-1.01429 2.48451,-1.01429 1.02171,0 2.00765,-0.3375 2.19099,-0.75 0.18333,-0.4125 1.90833,-1.480971 3.83333,-2.37438 1.925,-0.893409 5.90403,-2.805909 8.84229,-4.25 8.50839,-4.181695 9.31237,-2.971957 3.72497,5.604963 -3.77523,5.795168 -4.67936,6.769702 -22.748,24.519417 -13.09912,12.867905 -14.26937,13.492532 -19.40796,10.359054 z m 134.0887,-13.237119 c -2.75,-1.110451 -5.9,-2.835129 -7,-3.832618 -1.1,-0.997488 -3.89673,-2.765499 -6.21496,-3.928914 -3.66725,-1.840427 -15.68273,-9.516413 -23.26436,-14.86223 -2.32029,-1.636043 -8.83011,-5.916188 -20.45755,-13.450647 l -4.93687,-3.199042 4.93687,-1.39511 c 2.71528,-0.767311 7.18687,-1.757551 9.93687,-2.200533 2.75,-0.442982 8.15,-1.3095817 12,-1.9257787 3.85,-0.616196 9.50209,-1.5606149 12.5602,-2.098709 3.0581,-0.5380942 9.00905,-0.978353 13.22432,-0.978353 7.90682,0 10.71548,1.8893844 10.71548,7.2082967 0,0.719189 1.125,3.420923 2.5,6.003854 1.375,2.58293 2.5,5.195684 2.5,5.80612 0,0.610436 1.15259,3.629709 2.56132,6.709495 6.22115,13.60082 7.05855,19.980833 2.97386,22.657224 -3.18391,2.086177 -5.88323,1.971106 -12.03518,-0.513055 z m 93,-1.224185 c -4.26582,-1.996666 -8.75,-7.09458 -8.75,-9.947592 0,-1.336203 2.55378,-6.267346 5.67507,-10.958095 6.34846,-9.540627 5.97152,-9.41432 15.35227,-5.144269 2.90253,1.321213 5.61988,2.402206 6.03855,2.402206 0.90993,0 6.68857,2.937116 10.18411,5.176285 4.83269,3.095724 11.51829,6.85664 13.25,7.453657 2.82486,0.973883 2.15422,4.250538 -1,4.885852 -1.5125,0.304644 -7.79371,1.903394 -13.95824,3.552778 -13.71498,3.669585 -22.6288,4.527697 -26.79176,2.579178 z M 279.40886,38.817716 c -0.91025,-1.005807 -1.65499,-2.345838 -1.65499,-2.977846 0,-0.632008 -1.08415,-3.521574 -2.40922,-6.421259 -11.16429,-24.4310794 -11.0838,-23.7732648 -2.90817,-23.7665768 7.73214,0.00633 14.1866,1.4900067 14.93196,3.4324021 0.94037,2.4505657 -1.32147,28.5039307 -2.60931,30.0556767 -1.66114,2.001551 -3.33861,1.90047 -5.35027,-0.322397 z M 304.64236,36.006 c -1.34038,-1.620937 -1.56015,-22.463757 -0.25906,-24.568958 0.69902,-1.13104 8.1358,-0.979473 8.85265,0.180424 0.33007,0.534055 2.84172,1.268369 5.58146,1.631808 2.73974,0.36344 5.22281,1.051486 5.51792,1.528991 0.29512,0.477506 1.60846,0.868192 2.91854,0.868192 3.57564,0 3.89502,1.61554 1.05538,5.338506 -1.40546,1.842652 -2.55538,3.789149 -2.55538,4.325549 0,0.536401 -1.0708,1.906322 -2.37955,3.044269 -1.30876,1.137947 -2.54626,2.475766 -2.75,2.97293 -1.55265,3.788651 -13.76221,7.36267 -15.98196,4.678289 z" />
  </g>
</svg>
