<?xml version="1.0" encoding="UTF-8" standalone="no"?>
<!-- Created with Inkscape (http://www.inkscape.org/) -->

<svg
   width="193.3329mm"
   height="28.928461mm"
   viewBox="0 0 193.3329 28.928461"
   version="1.1"
   id="svg1"
   xmlns="http://www.w3.org/2000/svg"
   xmlns:svg="http://www.w3.org/2000/svg">
  <defs
     id="defs1">
      <style>
      .logo-color {
        fill: white;
        stroke: white;
      }
    </style>
  </defs>
  <g
     id="layer1"
     transform="translate(-8.3335464,-45.538668)">
    <g
       id="LogoGroup"
       transform="translate(5.7214552)"
       class="logo-color"
       style="fill-opacity:1">
      <path
         class="logo-color"
         style="display:inline;fill-opacity:1;stroke-opacity:1"
         d="m 239.25387,505.05489 c -6.47226,-0.74313 -22.92011,4.03586 -19.48203,-1.49742 2.77726,-4.46976 8.65675,-3.88351 13.22844,-3.9507 9.42036,-0.13846 30.08911,-5.9606 28.01612,3.26464 -0.88397,3.93387 -5.60743,4.47225 -8.88692,3.76469 -4.24604,-0.91611 -8.56982,-1.08962 -12.87561,-1.58121 z m 40.58905,-7.15843 c -0.87763,-9.94855 -2.60481,-22.04035 4.10926,-29.40049 6.4739,-7.09687 17.16981,-6.95843 24.85487,-11.94762 5.72184,-3.71466 13.78708,-2.61005 18.58844,2.82705 6.17837,6.99642 13.30202,14.66891 13.98945,24.23741 0.35565,4.95051 -3.33269,9.31806 -8.19154,10.78008 -7.11714,2.14153 -14.37277,3.73857 -21.61547,5.40349 -9.5446,2.19407 -19.55184,6.19672 -29.09764,3.88418 -2.59743,-0.62925 -2.12211,-3.80699 -2.63737,-5.7841 z m -83.08905,0.6956 c -10.73434,-1.91981 -24.59775,-0.71082 -31.22049,-9.31857 -2.87512,-3.73687 0.28988,-8.36237 3.2381,-10.98774 4.36424,-3.88634 6.30582,-11.65119 12.11006,-12.63093 5.24012,-0.88451 8.82005,3.96341 11.61254,7.83534 3.85326,5.34277 5.8351,11.79513 10.60939,16.7773 3.51662,3.66974 -1.65209,11.67423 -6.3496,8.3246 z m 53,-13.53839 c -10.22801,-2.00011 -22.40714,1.03578 -30.78703,-5.71663 -8.83687,-7.12063 -16.9004,-15.67603 -21.62503,-25.86195 -4.94301,-10.65673 3.03911,-25.12891 15.03559,-25.87285 6.64366,-0.41199 13.17649,-2.58466 19.83435,-2.18528 5.66648,0.33991 10.74116,3.49733 14.42195,7.90746 5.48551,6.57246 11.70141,12.6247 16.41202,19.76326 3.51841,5.33187 3.71364,11.93008 2.81969,18.35493 -0.67996,4.88684 -1.40964,11.15085 -6.47136,13.35665 -3.03778,1.3238 -6.50589,1.06998 -9.64018,0.25441 z m -107,-6.40447 c -18.0717,-9.81354 -37.22375,-19.69826 -50.103956,-35.75107 -3.327427,-4.14703 1.198196,-10.22026 6.567027,-9.67025 9.757869,0.99964 18.978389,4.32613 28.520919,6.53908 10.43332,2.41953 20.47123,9.26579 31.10837,8.02456 4.29348,-0.501 10.24023,3.53058 8.28994,8.07282 -2.71284,6.31823 -8.32142,10.41465 -12.83852,15.40793 -2.77501,3.06754 -5.93198,10.30861 -10.94407,7.82205 z m 209.74447,-13.14795 c -6.95629,-6.85522 -15.1803,-14.95348 -14.97872,-25.02085 0.15598,-7.79026 0.92592,-18.2694 8.17013,-21.5084 7.27081,-3.2509 15.06991,-0.14286 22.31494,1.37001 17.82108,3.72134 37.11169,4.21341 52.96814,13.54971 4.29803,2.5307 3.07465,8.8132 -0.90114,11.66079 -8.91391,6.38443 -17.07566,13.82069 -26.54815,19.4626 -5.40676,3.22033 -11.56661,1.32233 -17.57433,2.62781 -6.08435,1.32213 -12.99195,4.95334 -18.65107,2.05543 -1.92485,-0.98567 -3.25051,-2.74958 -4.7998,-4.1971 z m -77.11291,-22.10479 c -6.96255,-7.72121 -16.03951,-14.6286 -19.23026,-24.5097 -2.06366,-6.39075 2.38656,-12.2693 5.61667,-17.44904 4.40202,-7.059 7.08703,-15.90088 13.86128,-20.75878 6.61981,-4.74714 15.07724,-2.65195 22.54932,-2.15571 6.8212,0.45301 14.55195,-1.15846 20.3529,2.46896 6.71252,4.19744 9.33971,12.34012 10.36272,19.60084 1.57716,11.1938 -1.86708,22.99748 -8.792,31.62586 -5.52139,6.87961 -14.59095,8.73409 -22.48326,11.92274 -6.19847,2.5043 -14.02061,5.77223 -20.02608,1.54031 -0.87116,-0.61389 -1.64172,-1.38163 -2.21129,-2.28548 z M 165.25387,433.09707 c -10.23584,-2.84123 -20.583,-5.26623 -30.79754,-8.18591 -4.03564,2.57215 -8.78287,-6.04774 -4.49859,-7.22039 14.83685,-4.06098 28.82444,-13.50045 44.27631,-13.39371 6.65105,0.0459 10.62859,6.79498 11.70593,12.76216 1.29441,7.16948 -1.93801,16.66832 -9.56221,18.14657 -3.84561,0.74563 -7.54166,-0.99559 -11.1239,-2.10872 z m 272.17424,-9.49221 c -6.90424,-7.10976 -7.80996,-17.47979 -9.41474,-26.80933 -2.77374,-16.12551 -8.89652,-31.99715 -8.55839,-48.3424 0.21082,-10.19133 9.89145,-17.76318 19.72549,-18.59045 11.49395,-0.9669 22.20241,4.03154 32.94783,7.24236 5.32411,1.59089 12.13734,0.37661 16.11524,4.25983 3.75958,3.67008 0.28925,8.85704 -1.43646,12.65632 -10.23162,22.52582 -20.08229,46.81629 -38.84988,63.02534 -2.79672,2.41544 -6.0705,10.1867 -10.52909,6.55833 z M 70.331726,421.72772 c -1.44965,-5.43122 7.856849,0.0922 2.34658,1.6264 -1.000217,0.27848 -2.606158,-0.36997 -2.34658,-1.6264 z M 202.49294,409.37101 c -9.15579,-16.34298 -18.3612,-33.19487 -22.14964,-51.52729 -1.39384,-6.74485 5.23747,-12.20535 11.91036,-12.4383 9.96061,-0.34771 19.17468,3.88078 28.4826,6.7682 12.74868,3.95478 27.25099,4.76938 37.96102,12.74796 4.14634,3.08888 2.54717,9.16271 -0.30236,12.85805 -7.16412,9.29063 -10.70261,22.07313 -21.13652,28.21462 -8.542,5.0279 -18.73326,5.60884 -28.37414,6.34597 -2.39456,-0.0743 -5.0376,-0.83002 -6.39132,-2.96921 z m 194.76093,1.59107 c -15.06504,-4.77841 -32.74647,-2.28883 -46.02087,-10.9316 -9.76053,-6.35494 -15.64511,-19.98074 -10.68284,-30.79484 3.74409,-8.15936 9.00883,-15.45623 14.77952,-22.25511 3.46188,-4.0787 9.25957,-3.87348 14.23465,-3.5705 9.54793,0.58146 20.12105,-3.03989 28.66948,1.4463 5.95337,3.12431 7.02278,10.48896 7.52581,16.65877 0.84257,10.3343 3.65966,20.33722 5.33568,30.56655 0.60233,3.67626 -0.0852,7.58234 1.58322,10.99856 2.12449,4.35017 -0.41713,10.4067 -5.85709,9.75386 -3.28911,0.007 -6.38157,-1.24273 -9.56756,-1.87199 z M 91.153578,409.94429 c -5.115337,-6.95538 -8.458099,-16.27072 -6.03661,-24.33437 2.407726,-8.01782 10.757021,-11.54656 17.646402,-14.96734 15.1401,-7.51749 30.96561,-15.44989 48.36193,-15.41558 5.95006,0.0117 12.27817,3.09712 14.42778,9.16949 1.9911,5.6246 5.35369,10.96622 5.97545,16.8844 0.49639,4.7249 -3.84598,8.11232 -8.30915,9.39106 -16.22145,4.6476 -32.11931,10.33231 -48.33954,14.99636 -7.6841,2.20952 -15.578607,5.5599 -23.726262,4.27598 z M 45.57192,389.14646 c -10.657168,-16.0779 -23.133132,-32.64998 -25.44736,-51.7649 -0.669214,-5.52753 6.971876,-7.77544 10.954639,-4.36271 6.625383,5.67714 12.344623,12.29152 18.130504,18.79339 7.199447,8.09035 16.228335,15.80869 19.10098,26.30667 1.608529,5.87832 -2.710681,13.33068 -9.190704,13.25869 -4.481116,0.44216 -9.868497,1.23534 -13.470331,-2.05441 z m 265.18195,-25.55104 c -9.43474,-1.75907 -20.13027,1.43372 -28.50999,-4.05568 -4.58717,-3.00496 -4.47524,-9.08274 -4.41903,-14.26849 0.12558,-11.58537 -1.50043,-23.89276 3.92704,-34.67184 6.68237,-13.27135 14.55232,-26.21039 25.2753,-36.36614 3.6513,-3.45814 8.99404,-0.47777 11.64734,3.60444 10.04963,15.46176 21.15866,31.0862 25.46485,49.00569 1.62357,6.75619 -2.83808,12.82014 -6.47162,18.29992 -4.89264,7.37865 -9.70614,16.42841 -18.76696,18.86618 -2.65854,0.71526 -5.56479,0.52751 -8.14693,-0.41408 z M 80.248692,361.626 C 66.281963,349.63822 51.741478,337.17892 43.134948,321.01933 c -4.272673,-8.02236 -6.558129,-18.36447 -2.474699,-26.33583 3.602654,-7.03282 11.15198,-10.31927 17.493139,-14.31646 9.599922,-6.05137 18.049056,-15.29912 29.200425,-17.5553 5.347597,-1.08194 8.390227,4.6163 9.865284,8.97341 7.512823,22.19182 23.009303,42.18584 25.290133,65.51863 0.47212,4.82967 -4.06516,7.95906 -8.32185,9.81755 -11.12481,4.85714 -21.248354,12.414 -33.414101,14.57887 z M 252.25387,345.71269 c -14.4475,-5.5046 -30.5618,-6.48926 -44.26747,-13.59901 -4.13413,-2.14455 -4.56064,-7.11459 -2.90662,-11.30867 1.93299,-4.90145 3.83653,-10.76804 8.48608,-13.34657 5.75537,-3.19179 12.30938,-0.22732 17.9054,1.81846 7.24904,2.65009 15.01075,3.62674 22.24767,6.22994 4.16126,1.49685 7.87097,4.86864 8.40012,9.67552 0.58717,5.33392 0.24031,10.62054 0.0437,16.01675 -0.17254,4.73444 -6.29619,6.11151 -9.90884,4.51358 z m -110.33669,-8.81623 c -7.58335,-8.72376 -10.01896,-20.17307 -14.30426,-30.62869 -4.30883,-10.51299 -10.60326,-20.42445 -12.88171,-31.55756 -0.80411,-3.92912 -5.65098,-9.80519 -0.9107,-12.46657 4.25481,-2.38882 8.77223,0.58864 12.99842,1.4211 8.53,1.68022 15.0769,8.88029 17.21157,17.4794 3.20246,12.90051 3.52523,26.12738 6.01551,39.26698 0.97137,5.12528 2.50317,10.81508 0.3261,15.59857 -1.45152,3.1893 -6.25998,3.29717 -8.45493,0.88677 z m 26.88504,-2.20165 c -5.50499,-9.06449 -4.4122,-19.97858 -5.55027,-30.07907 -0.81613,-7.2432 -5.98379,-15.13176 -2.79316,-21.68568 2.02429,-4.15811 7.60571,-4.11395 11.23955,-2.4806 7.93728,3.56767 18.88586,2.53762 24.24765,9.65574 3.2389,4.29984 0.87352,9.84296 -0.9753,14.4107 -4.64632,11.47936 -10.29778,23.69621 -21.19952,30.41749 -1.44975,0.89381 -3.85429,1.48897 -4.96895,-0.23858 z m 196.78214,-9.07514 c -6.60438,-3.38296 -13.74788,-13.75984 -8.25989,-18.80738 10.05591,-9.24887 23.53083,-12.484 35.47053,-18.59197 8.57279,-4.38555 17.07088,-15.02529 26.2517,-12.06019 5.03528,1.62623 5.35018,7.67433 6.02208,12.09872 1.28677,8.47319 3.6581,17.82808 -0.62533,25.80132 -5.23586,9.7461 -16.96146,14.05394 -27.55006,13.66117 -10.45515,0.47233 -21.11563,0.65178 -31.30903,-2.10167 z m 122.66951,-0.20336 c -13.50143,-4.97102 -29.69241,-4.01706 -41.17394,-12.76645 -5.25211,-4.00232 -5.03293,-11.21995 -5.51765,-17.19256 -0.64385,-7.93315 -5.47922,-17.9129 -0.16929,-23.86658 3.47664,-3.89813 9.137,-2.59585 13.76027,-2.65345 14.61749,-0.18212 30.39443,-3.91673 43.82426,2.08459 5.67284,2.535 6.48962,9.57662 5.83923,15.42883 -1.38685,12.47872 -3.40662,24.96604 -7.34628,36.85607 -1.20891,3.64851 -6.5088,4.65588 -9.2166,2.10955 z M 13.576818,314.89646 c -3.164638,-11.3269 -15.1488866,-26.30087 -6.7900881,-34.54619 4.0283061,-3.97362 8.9156871,1.20292 11.3512131,4.74424 4.769228,6.93458 6.121023,15.7684 4.136857,24.13627 -0.798461,3.36737 -3.149017,8.04058 -7.413809,7.14526 -0.779671,-0.16368 -1.226018,-0.70805 -1.284173,-1.47958 z M 252.29012,299.0581 c -9.39299,-3.86968 -21.67637,-1.35665 -29.11427,-8.43487 -4.92704,-4.68879 -3.12368,-12.21394 -0.74302,-17.99935 4.18903,-10.18 5.60247,-22.79956 14.26444,-29.8328 5.05946,-4.10811 11.92619,-2.09505 17.72194,-1.00574 12.4047,2.33146 25.49376,2.87905 36.80039,9.48338 4.65435,2.71865 5.70317,9.25828 2.43917,13.88955 -4.68183,6.64302 -9.16204,13.42809 -13.97305,19.97604 -4.0941,5.57221 -7.27157,12.96375 -13.68444,15.66332 -4.52015,1.9028 -9.49198,0.0807 -13.71116,-1.73953 z m 93.32121,-10.16164 c -4.17601,-5.77799 -12.72632,-10.87346 -11.65611,-17.92039 0.81291,-5.35271 6.52237,-7.36676 10.77443,-9.50572 17.81375,-8.96106 34.6975,-20.33351 53.73598,-26.28106 6.06759,-1.89549 11.29436,3.20329 14.51527,8.26801 2.40196,3.77696 6.614,8.96192 3.83633,12.84428 -4.71359,6.58817 -12.79874,8.74947 -19.67049,12.27879 -15.12444,7.76788 -29.62097,17.58118 -46.09579,21.83645 -1.87288,0.48375 -4.3385,0.31947 -5.43962,-1.52036 z M 30.253874,274.21494 C 20.778504,267.29538 9.3526397,259.34272 7.5398328,247.67761 5.5709889,235.00843 5.5315098,221.5852 10.156555,209.83914 c 1.605201,-4.07667 -0.9538177,-11.15239 3.711047,-12.59419 5.051634,-1.56134 9.423896,2.20539 13.582487,4.40457 15.643482,8.27271 33.93137,12.12714 47.677748,23.31506 4.777934,3.88867 10.692932,9.59756 9.153317,15.67594 -1.862619,7.3536 -9.369429,10.68453 -15.305222,14.251 -11.00582,6.61275 -20.717658,15.97465 -32.977589,19.91565 -1.878237,0.60376 -4.065297,0.5204 -5.744469,-0.59223 z m 163.999996,-2.55485 c -10.07525,-2.98198 -29.4245,-0.78017 -29.40284,-11.31178 0.011,-5.34429 5.33204,-8.00107 8.99182,-10.86375 9.35344,-7.31628 23.16317,-3.95213 33.2599,-10.0149 4.26851,-2.5631 11.09182,0.99056 9.50546,6.6381 -1.86216,6.62945 -5.29517,12.57007 -8.11984,18.84747 -1.8776,4.17264 -5.88341,8.25889 -10.97683,7.43876 -1.10004,-0.17712 -2.17838,-0.46202 -3.25767,-0.7339 z m 120.47251,-19.73783 c -10.20442,-5.29451 -12.4018,-18.72363 -8.57609,-29.3988 4.15234,-11.58656 14.35914,-19.25627 23.59294,-26.84191 10.48373,-8.61247 19.49428,-19.90085 32.02895,-25.12043 5.84955,-2.43581 11.42984,2.08521 15.58802,6.21462 7.95816,7.90311 16.50295,16.20159 19.51701,27.48921 1.43039,5.35676 0.44495,11.79303 -4.44999,15.41508 -7.97892,5.90409 -17.32647,9.33978 -26.19195,13.6539 -14.83888,7.22088 -28.65402,19.60058 -45.261,20.22329 -2.17628,0.0816 -4.44634,-0.35421 -6.24789,-1.63496 z m 125.52749,0.56352 c -5.32314,-0.86373 -6.66308,-9.4116 -1.47665,-11.73525 12.29924,-5.51035 25.10222,-9.74531 37.63424,-14.68974 3.83344,-1.51246 7.28585,-4.61698 11.40401,-4.77222 5.06399,-0.19089 7.26529,5.47464 7.34669,10.17689 0.10514,6.07359 3.65832,13.13853 0.22125,18.23741 -2.9441,4.36756 -8.81264,3.95331 -13.47984,3.91053 -13.88535,-0.12726 -27.82748,0.56318 -41.6497,-1.12762 z m -308.5,-2.86554 c -5.9981,-2.0871 -17.29805,-0.16823 -17.89882,-6.62273 -0.47892,-5.1454 4.5131,-8.05303 7.72267,-11.17264 6.52453,-6.34163 11.96165,-15.69428 20.89728,-17.54812 5.70333,-1.18324 9.88118,3.81786 13.61726,7.41518 3.40685,3.28031 9.46937,6.4272 8.70748,11.21821 -1.02982,6.4758 -7.02931,10.25473 -12.05086,13.47237 -6.09747,3.90705 -14.02002,6.07392 -20.99501,3.23773 z m 140.5,-20.97378 c -10.45775,-1.61431 -22.29086,0.12259 -31.23119,-6.32194 -7.7315,-5.57316 -10.16624,-15.27183 -12.91981,-23.87437 -2.65682,-8.30028 -8.18854,-16.13473 -8.12481,-24.85151 0.0481,-6.57561 6.37176,-10.40746 11.7546,-12.96321 11.22188,-5.32811 25.02005,-9.76246 36.39268,-4.61098 6.80626,3.08304 8.59246,10.96068 11.60238,17.08442 5.88892,11.98108 12.73213,24.34042 12.42355,38.17688 -0.13998,6.277 -0.91935,14.33572 -7.02827,17.33295 -4.03678,1.98057 -8.71501,1.09694 -12.86913,0.0278 z M 98.889704,226.31013 c -5.134401,-8.57411 -4.072231,-18.8828 -4.380535,-28.4191 -0.505174,-15.62579 -5.629393,-32.39498 0.318074,-46.91479 2.080967,-5.08036 8.110427,-6.03306 13.323637,-6.63492 12.01486,-1.3871 24.38724,-3.34713 36.38494,0.21832 4.36186,1.29624 10.71745,2.50383 11.5573,7.14736 1.33946,7.40588 -3.69785,13.55215 -6.60298,19.86791 -7.99845,17.38863 -20.08486,32.64262 -34.57559,45.3578 -4.1505,3.64194 -7.62134,8.93608 -12.98685,10.28139 -1.06059,0.26593 -2.378956,0.0628 -3.037996,-0.90397 z M 421.8982,225.11445 c -7.13369,-6.22674 -12.65696,-17.56874 -7.79243,-25.85084 4.89733,-8.33796 14.1223,-12.08457 21.76793,-17.30778 11.89512,-8.1263 25.3419,-18.27426 39.85219,-16.25936 5.26551,0.73117 7.95965,6.08344 9.18186,11.03019 1.95405,7.90887 8.72287,16.15376 5.20986,23.98423 -2.78488,6.20749 -10.03126,7.75955 -15.85082,9.83922 -15.25305,5.45079 -29.49594,15.15061 -45.62631,16.71607 -2.40034,0.23295 -5.03617,-0.34387 -6.74228,-2.15173 z m -241.55175,-2.47263 c -8.25646,-6.282 -18.67479,-11.95616 -22.17271,-21.74699 -2.73792,-7.66356 1.71197,-15.22918 4.79734,-22.04241 2.46543,-5.44425 3.19459,-12.91066 8.42707,-15.81827 5.02593,-2.79285 10.42423,0.57429 15.32827,1.92637 9.71086,2.67737 17.39013,10.53967 20.71111,20.35829 3.41285,10.09027 9.22841,19.64707 10.31066,30.24725 0.49919,4.88938 -4.80526,8.94871 -9.4372,7.91401 -9.27437,1.1068 -18.87287,1.81859 -27.96454,-0.83825 z M 58.745767,199.54371 c -9.515715,-4.5066 -20.763637,-6.40755 -28.55276,-13.51447 -3.417772,-3.11842 -12.437004,-2.40026 -11.535741,-7.29208 2.942278,-15.9699 8.996667,-31.42636 18.122006,-44.60323 2.981746,-4.30559 8.965748,-3.22509 13.327859,-1.2387 8.268053,3.76506 18.768901,5.12031 24.271167,12.45099 4.217035,5.61836 2.893835,12.96624 2.990014,19.48579 0.190946,12.94341 8.349703,28.99277 -0.07136,38.83703 -3.325472,3.88749 -8.882631,1.37097 -12.496141,-1.09094 -1.877017,-1.27882 -4.089011,-1.91995 -6.055048,-3.03439 z M 302.32188,184.64526 c -4.21351,-10.18084 -12.31833,-19.23146 -13.37341,-30.21861 -0.7927,-8.25488 5.31591,-15.16496 11.49281,-19.62069 7.89172,-5.69272 18.1457,-4.0968 27.19948,-3.10799 8.17813,0.89318 17.57258,0.36098 24.11658,5.8961 5.13039,4.33945 6.77135,12.70504 2.14929,18.26425 -6.33729,7.62222 -15.10606,12.48071 -22.93605,18.3576 -7.09276,5.32355 -13.15962,12.17481 -21.01156,16.31447 -4.03835,2.12908 -6.32398,-3.03839 -7.63714,-5.88513 z m 89.09535,-16.2488 c -7.39157,-7.62576 -18.98677,-15.03554 -18.56977,-25.91724 0.26287,-6.8597 6.52013,-10.98666 11.30542,-14.92845 7.30082,-6.01392 13.2526,-15.18762 22.46458,-17.32106 5.28015,-1.22285 9.26022,3.54894 11.91319,7.63449 7.27303,11.20038 12.97804,23.73216 22.50377,33.13716 3.45012,3.40639 0.99567,8.81304 -2.92275,11.5072 -9.28955,6.38716 -17.89705,15.25722 -28.948,17.42551 -5.41985,1.06342 -9.57899,-3.47565 -13.10857,-7.02175 -1.52218,-1.52931 -3.04328,-3.06134 -4.63787,-4.51586 z M 199.62077,153.6364 c -9.0431,-3.27892 -20.66002,-4.67763 -25.75505,-13.10169 -3.24036,-5.35756 -0.0842,-11.55393 2.2341,-16.6589 3.28159,-7.22602 4.90399,-16.56148 12.53481,-20.46513 8.30094,-4.246474 17.29859,-7.235441 26.50546,-7.920147 4.59662,-0.341848 10.05998,-4.707291 13.85488,-1.216411 3.86332,3.553824 2.43906,9.201398 2.2137,13.797298 -0.60748,12.38908 -0.13283,25.93403 -7.37798,36.55898 -5.19493,7.61834 -15.34831,11.01349 -24.20992,9.006 z m 261.6331,-4.68916 c -9.41071,-7.0284 -14.69808,-17.68358 -21.22245,-27.14377 -5.36141,-7.77393 -13.14813,-14.67627 -15.19084,-23.917682 -1.04903,-4.745908 3.57296,-8.074798 8.11925,-9.359037 6.37361,-1.800422 11.70665,3.453497 15.64123,8.148727 11.76179,14.035622 27.88511,27.648672 30.06799,45.786182 0.61323,5.09531 -5.06824,8.11951 -9.56008,8.00772 -2.66497,-0.0663 -5.51485,-0.0476 -7.8551,-1.52214 z m -212.40536,-9.1732 c -4.46586,-2.34643 -4.36137,-8.13017 -3.76729,-12.51904 2.10717,-15.56706 1.30283,-32.138957 8.91891,-46.411531 2.19736,-4.117852 6.55848,-9.789368 11.20211,-7.863483 6.30964,2.616846 8.01745,9.770226 10.90418,15.246919 5.04842,9.577841 14.31097,18.380435 14.16818,29.235745 -0.10115,7.68986 -6.64102,13.07007 -12.56251,16.86666 -8.43055,5.40529 -19.02291,7.87029 -28.86358,5.44473 z M 84.573955,129.99139 c -11.653508,-2.03634 -26.284738,-3.20421 -32.548768,-13.05619 -2.794788,-4.3956 0.954456,-9.18837 3.851226,-12.50493 8.143912,-9.324093 15.982289,-19.336509 27.262175,-25.361132 5.169595,-2.761097 11.366733,-6.061017 17.281652,-3.40419 10.89647,4.894406 15.92458,17.00284 17.60626,28.477052 0.94056,6.41747 5.9009,13.18935 2.862,19.30814 -2.3942,4.82069 -8.4046,5.73925 -13.25357,5.57398 -7.648863,0.73065 -15.395304,2.60037 -23.060975,0.96727 z m 61.319305,-1.34361 c -5.98105,-1.53509 -8.08897,-8.1271 -9.38087,-13.51106 -1.93917,-8.08147 -5.15895,-16.157951 -4.86873,-24.448976 0.33062,-9.444783 7.70111,-16.34623 13.90047,-22.596942 4.23298,-4.268049 7.08281,-11.214513 12.94168,-12.555954 5.42411,-1.241899 7.66548,5.172236 8.14089,9.718115 1.53266,14.655377 3.27106,29.905019 -1.74636,44.208207 -2.30266,6.56423 -3.82665,14.44512 -9.63275,18.60757 -2.70363,1.93825 -6.37925,1.70543 -9.35433,0.57904 z m 215.6441,-8.75132 c -5.59494,-7.89035 -3.88849,-18.10645 -6.18719,-27.021788 -1.71139,-6.637516 -6.03484,-15.267783 -1.43592,-20.442192 5.68078,-6.391643 14.70586,-6.549697 22.42768,-8.343129 5.08642,-1.181348 10.21559,-4.274887 15.33111,-3.218157 5.80506,1.199171 7.96281,7.496981 11.53771,11.654233 5.29371,6.156044 2.89944,15.472245 -2.87463,21.257361 -10.14174,10.161132 -20.88538,20.143502 -33.57552,26.777042 -1.60788,0.84049 -4.13847,1.16475 -5.22324,-0.66337 z m -26.86682,-2.64548 c -8.8515,-1.95568 -20.62743,2.05815 -26.74982,-4.82304 -8.18282,-9.19697 -12.4627,-20.837004 -18.0189,-31.644683 -2.23231,-4.342194 -6.16853,-8.222782 -6.57516,-13.088307 -0.46117,-5.518047 4.71793,-9.275819 9.71706,-10.921308 8.59226,-2.828191 18.68017,-6.067342 26.73044,-2.122153 11.18411,5.480984 16.44588,17.982764 18.49887,29.817462 1.66099,9.574965 5.91588,19.581639 3.12595,29.019239 -0.78658,2.66079 -3.91126,5.30705 -6.72844,3.76279 z M 185.87616,84.946568 c -5.62894,-11.629724 -5.3247,-24.763427 -6.08148,-37.320199 -0.29882,-4.958112 -3.79532,-11.36633 -0.29813,-14.895016 3.588,-3.620311 8.79238,-0.491428 12.15445,2.001128 14.68017,10.883507 35.73026,14.859615 45.66001,30.223148 2.82852,4.376359 -1.91488,8.781242 -6.14456,10.297044 -13.76084,4.931513 -28.05616,8.46128 -42.48041,10.692039 -0.99873,-0.08508 -2.00929,-0.374398 -2.80988,-0.998144 z M 424.0872,72.97979 c 0.70412,-2.978531 1.12797,1.773926 0,0 z m -3.83333,-3.333333 c 2.07029,-1.841757 -0.014,2.482386 0,0 z m -304.0887,-2.890946 c -4.55172,-2.282152 -10.8047,-8.814965 -7.15602,-12.592765 9.31801,-9.647766 21.48541,-15.650888 33.19663,-21.755131 5.35787,-2.792681 11.90851,-11.95754 16.33615,-7.846369 3.07064,2.851154 0.96363,7.347139 -1.42689,9.881537 -10.63529,11.275422 -19.70109,24.976003 -33.30223,32.463518 -2.29701,1.264519 -5.58045,1.889691 -7.64764,-0.15079 z M 250.25387,53.518392 C 229.49626,42.082954 180.32352,36.901938 190.30875,15.441598 c 1.88249,-4.045875 6.95909,-3.054534 10.56954,-3.858878 14.42858,-3.2144336 29.19731,-6.9415897 44.01168,-5.699086 5.04048,0.422753 6.83527,5.828941 8.25892,10.001193 3.71066,10.874717 11.93203,20.880004 11.65434,32.468695 -0.12718,5.307477 -6.18797,8.236913 -11.26126,6.659303 -1.15287,-0.358503 -2.25413,-0.873073 -3.2881,-1.494433 z m 93,-1.224185 c -4.25831,-1.970013 -10.10904,-6.131262 -8.43594,-10.794953 2.18019,-6.077207 4.17054,-13.503367 9.82798,-16.485001 4.96233,-2.615295 10.21723,0.716817 14.77947,2.66386 6.74696,2.879423 12.42097,13.17959 19.29133,10.547128 4.71843,-1.807925 8.34309,7.497501 3.23188,8.505495 -10.98449,2.166275 -21.70136,7.004509 -33.01879,6.401702 -1.91238,-0.101861 -3.81834,-0.368671 -5.67593,-0.838231 z M 279.40886,38.817716 c -4.04805,-8.730064 -9.34408,-17.025426 -11.84296,-26.32712 -1.55573,-5.7909366 5.18478,-6.7138515 10.20736,-6.6390133 4.20752,0.062693 9.22305,1.826538 9.90945,6.7036543 0.72256,5.133953 0.31132,10.363643 -1.10218,15.303642 -1.14186,3.990647 0.36888,14.097694 -5.35735,12.391271 -0.75367,-0.224595 -1.45044,-0.720476 -1.81432,-1.432434 z M 304.64236,36.006 c -1.68796,-7.393694 -5.41905,-16.573066 -0.84778,-22.53189 2.9699,-3.8713771 8.5171,-2.679495 12.53686,-0.923225 4.15096,1.81359 12.54017,-0.09871 12.69947,4.842152 0.17298,5.365015 -4.04734,9.142652 -7.18518,12.886703 -4.05156,4.834299 -10.97818,8.016483 -17.20337,5.72626 z"
         id="path1"
         transform="matrix(0.04364303,0,0,0.04364303,62.738478,52.284141)" />
      <text
         xml:space="preserve"
         class="logo-color"
         style="font-style:normal;font-variant:normal;font-weight:normal;font-stretch:normal;font-size:38.1px;font-family:'Microsoft Sans Serif';-inkscape-font-specification:'Microsoft Sans Serif, Normal';font-variant-ligatures:normal;font-variant-caps:normal;font-variant-numeric:normal;font-variant-east-asian:normal;display:inline;fill-opacity:1;stroke-width:1.12513;stroke-dasharray:none;stroke-opacity:1"
         x="85.882141"
         y="73.401085"
         id="text4"><tspan
           id="tspan3"
           x="85.882141"
           y="73.401085"
           class="logo-color"
           style="font-style:normal;font-variant:normal;font-weight:normal;font-stretch:normal;font-size:38.1px;font-family:'Microsoft Sans Serif';-inkscape-font-specification:'Microsoft Sans Serif, Normal';font-variant-ligatures:normal;font-variant-caps:normal;font-variant-numeric:normal;font-variant-east-asian:normal;fill-opacity:1;stroke-width:1.12513">n Bark</tspan></text>
      <text
         xml:space="preserve"
         class="logo-color"
         style="font-style:normal;font-variant:normal;font-weight:normal;font-stretch:normal;font-size:38.1px;font-family:'Microsoft Sans Serif';-inkscape-font-specification:'Microsoft Sans Serif, Normal';font-variant-ligatures:normal;font-variant-caps:normal;font-variant-numeric:normal;font-variant-east-asian:normal;display:inline;fill-opacity:1;stroke-width:1.19062;stroke-dasharray:none;stroke-opacity:1"
         x="0.15642478"
         y="73.406731"
         id="text4-8"><tspan
           id="tspan2"
           x="0.15642478"
           y="73.406731">Mel</tspan></text>
    </g>
  </g>
</svg>
