<?xml version="1.0" encoding="UTF-8" standalone="no"?>
<!-- Generated by Microsoft Visio 11.0, SVG Export, v1.0 MN Logo Light.svg Page-1 -->

<svg
   width="1488"
   height="1488"
   viewBox="0 0 1116 1116.0008"
   xml:space="preserve"
   color-interpolation-filters="sRGB"
   class="st3"
   version="1.1"
   id="svg8"
   sodipodi:docname="MNLogoSquareWhite.svg"
   inkscape:version="1.3.2 (091e20e, 2023-11-25, custom)"
   xmlns:inkscape="http://www.inkscape.org/namespaces/inkscape"
   xmlns:sodipodi="http://sodipodi.sourceforge.net/DTD/sodipodi-0.dtd"
   xmlns="http://www.w3.org/2000/svg"
   xmlns:svg="http://www.w3.org/2000/svg"
   xmlns:v="http://schemas.microsoft.com/visio/2003/SVGExtensions/"><defs
   id="defs8">
		
		
		
		
	
			
			
			
			
			
			
		</defs><sodipodi:namedview
   id="namedview8"
   pagecolor="#ffffff"
   bordercolor="#000000"
   borderopacity="0.25"
   inkscape:showpageshadow="2"
   inkscape:pageopacity="0.0"
   inkscape:pagecheckerboard="true"
   inkscape:deskcolor="#d1d1d1"
   inkscape:document-units="in"
   inkscape:zoom="0.52116936"
   inkscape:cx="729.12959"
   inkscape:cy="709.94197"
   inkscape:window-width="1509"
   inkscape:window-height="1438"
   inkscape:window-x="-6"
   inkscape:window-y="-6"
   inkscape:window-maximized="1"
   inkscape:current-layer="svg8" />
	<v:documentProperties
   v:langID="1033"
   v:viewMarkup="false" />

	<style
   type="text/css"
   id="style1">
	<![CDATA[
		.st1 {fill:#ffffff;fill-opacity:0.75;stroke:#ffffff;stroke-linecap:round;stroke-linejoin:round;stroke-opacity:0.75;stroke-width:0.75}
		.st2 {fill:#ffffff;fill-opacity:0.5;stroke:#ffffff;stroke-linecap:round;stroke-linejoin:round;stroke-opacity:0.5;stroke-width:0.75}
		.st3 {fill:none;fill-rule:evenodd;font-size:12px;overflow:visible;stroke-linecap:square;stroke-miterlimit:3}
	]]>
	</style>

	<g
   inkscape:groupmode="layer"
   id="layer1"
   inkscape:label="Background"
   style="display:none;fill:#1a237e;fill-opacity:1"
   sodipodi:insensitive="true"><rect
     style="fill:#1a237e;fill-opacity:1;stroke-width:1.73111"
     id="rect8"
     width="1169.246"
     height="1164.2094"
     x="-25.903311"
     y="-15.110256" /></g><g
   id="group9-1"
   transform="translate(0,-0.75)"
   v:mID="9"
   v:groupContext="group">
			<title
   id="title2">Sheet.9</title>
		</g><g
   id="MNgroup"
   inkscape:label="MNgroup"
   transform="translate(-0.06426191,399.81353)"><title
     id="title11">MN group</title><g
     id="Mgroup"
     inkscape:label="Mgroup"
     style="stroke:#ffffff;stroke-opacity:0.66000003;fill:#ffffff;fill-opacity:1"><title
       id="title10">M group</title><g
       id="shape6-3"
       v:mID="6"
       v:groupContext="shape"
       transform="rotate(90,157.22883,159.27117)"
       style="fill:#ffffff;fill-opacity:1;stroke:#ffffff;stroke-opacity:0.66000003">
				<title
   id="title4">Sheet.6</title>
				<path
   d="M 53.39,69.68 9,95.3 a 18,18 -180 0 0 -9,15.59 v 51.17 a 18,18 -180 0 0 9.05,15.62 l 233.32,133.67 a 18,18 -180 0 0 17.95,-0.03 l 44.39,-25.62 a 18,18 -180 0 0 9,-15.59 v -51.18 a 18,18 -180 0 0 -9.05,-15.62 L 71.34,69.65 a 18,18 -180 0 0 -17.95,0.03 z"
   class="st1"
   id="path4"
   style="fill:#ffffff;fill-opacity:1;stroke:#ffffff;stroke-opacity:0.66000003" />
			</g><g
       id="shape8-5"
       v:mID="8"
       v:groupContext="shape"
       transform="rotate(90,279.3765,469.1265)"
       style="fill:#ffffff;fill-opacity:1;stroke:#ffffff;stroke-opacity:0.66000003">
				<title
   id="title5">Sheet.8</title>
				<path
   d="M 53.35,177.7 9,203.3 a 18,18 -180 0 0 -9,15.59 v 51.22 a 18,18 -180 0 0 9,15.59 l 44.35,25.6 a 18,18 -180 0 0 18,0 l 44.36,-25.6 a 18,18 -180 0 0 9,-15.59 v -51.22 a 18,18 -180 0 0 -9,-15.59 L 71.35,177.7 a 18,18 -180 0 0 -18,0 z"
   class="st1"
   id="path5"
   style="fill:#ffffff;fill-opacity:1;stroke:#ffffff;stroke-opacity:0.66000003" />
			</g><g
       id="shape12-7"
       v:mID="12"
       v:groupContext="shape"
       transform="rotate(90,265.875,266.625)"
       style="fill:#ffffff;fill-opacity:1;stroke:#ffffff;stroke-opacity:0.66000003">
				<title
   id="title6">Sheet.12</title>
				<path
   d="M 53.39,69.68 9,95.3 a 18,18 -180 0 0 -9,15.59 v 51.17 a 18,18 -180 0 0 9.05,15.62 l 233.32,133.67 a 18,18 -180 0 0 17.95,-0.03 l 44.39,-25.62 a 18,18 -180 0 0 9,-15.59 v -51.18 a 18,18 -180 0 0 -9.05,-15.62 L 71.34,69.65 a 18,18 -180 0 0 -17.95,0.03 z"
   class="st1"
   id="path6"
   style="fill:#ffffff;fill-opacity:1;stroke:#ffffff;stroke-opacity:0.66000003" />
			</g></g><g
     id="Ngroup"
     inkscape:label="Ngroup"
     style="fill:#ffffff;fill-opacity:0.66000003;stroke:#ffffff;stroke-opacity:0.66000003"><title
       id="title9">N group</title><g
       id="shape18-9"
       v:mID="18"
       v:groupContext="shape"
       transform="rotate(90,481.875,482.625)"
       style="fill:#ffffff;fill-opacity:0.66000003;stroke:#ffffff;stroke-width:1.008;stroke-dasharray:none;stroke-opacity:0.66000003">
				<title
   id="title7">Sheet.18</title>
				<path
   d="M 53.39,69.68 9,95.3 a 18,18 -180 0 0 -9,15.59 v 51.17 a 18,18 -180 0 0 9.05,15.62 l 233.32,133.67 a 18,18 -180 0 0 17.95,-0.03 l 44.39,-25.62 a 18,18 -180 0 0 9,-15.59 v -51.18 a 18,18 -180 0 0 -9.05,-15.62 L 71.34,69.65 a 18,18 -180 0 0 -17.95,0.03 z"
   class="st2"
   id="path7"
   style="fill:#ffffff;fill-opacity:0.66000003;stroke:#ffffff;stroke-width:1.008;stroke-dasharray:none;stroke-opacity:0.66000003" />
			</g><g
       id="shape23-11"
       v:mID="23"
       v:groupContext="shape"
       transform="rotate(90,589.875,590.625)"
       style="fill:#ffffff;fill-opacity:0.66000003;stroke:#ffffff;stroke-width:1.008;stroke-dasharray:none;stroke-opacity:0.66000003">
				<title
   id="title8">Sheet.23</title>
				<path
   d="M 53.39,69.68 9,95.3 a 18,18 -180 0 0 -9,15.59 v 51.17 a 18,18 -180 0 0 9.05,15.62 l 233.32,133.67 a 18,18 -180 0 0 17.95,-0.03 l 44.39,-25.62 a 18,18 -180 0 0 9,-15.59 v -51.18 a 18,18 -180 0 0 -9.05,-15.62 L 71.34,69.65 a 18,18 -180 0 0 -17.95,0.03 z"
   class="st2"
   id="path8"
   style="fill:#ffffff;fill-opacity:0.66000003;stroke:#ffffff;stroke-width:1.008;stroke-dasharray:none;stroke-opacity:0.66000003" />
			</g></g></g>
</svg>
